<svg xmlns="http://www.w3.org/2000/svg" xmlns:xlink="http://www.w3.org/1999/xlink" width="500" height="500" preserveAspectRatio="xMidYMid meet" version="1.0" viewBox="0 0 375 375" zoomAndPan="magnify"><defs><clipPath id="62e9aadf65"><path d="M 116 147 L 187 147 L 187 218.0625 L 116 218.0625 Z M 116 147" clip-rule="nonzero"/></clipPath></defs><path fill="#5271ff" fill-opacity="1" fill-rule="nonzero" d="M 212.640625 187.09375 C 211.769531 187.09375 210.933594 186.929688 210.132812 186.597656 C 209.328125 186.265625 208.621094 185.789062 208.007812 185.171875 L 171.039062 148.109375 C 170.734375 147.804688 170.464844 147.472656 170.226562 147.113281 C 169.988281 146.753906 169.785156 146.375 169.621094 145.976562 C 169.457031 145.578125 169.332031 145.167969 169.25 144.746094 C 169.164062 144.324219 169.125 143.894531 169.125 143.464844 C 169.125 143.03125 169.164062 142.605469 169.25 142.183594 C 169.332031 141.761719 169.457031 141.351562 169.621094 140.953125 C 169.785156 140.554688 169.988281 140.175781 170.226562 139.816406 C 170.464844 139.457031 170.734375 139.125 171.039062 138.820312 L 192.601562 117.199219 C 192.90625 116.894531 193.238281 116.625 193.597656 116.386719 C 193.953125 116.144531 194.332031 115.945312 194.730469 115.777344 C 195.125 115.613281 195.535156 115.488281 195.957031 115.40625 C 196.378906 115.320312 196.804688 115.28125 197.234375 115.28125 C 197.664062 115.28125 198.089844 115.320312 198.511719 115.40625 C 198.933594 115.488281 199.34375 115.613281 199.742188 115.777344 C 200.140625 115.945312 200.515625 116.144531 200.875 116.386719 C 201.234375 116.625 201.5625 116.894531 201.867188 117.199219 L 238.835938 154.257812 C 239.140625 154.5625 239.410156 154.894531 239.648438 155.253906 C 239.886719 155.613281 240.089844 155.992188 240.253906 156.390625 C 240.417969 156.789062 240.542969 157.199219 240.625 157.621094 C 240.710938 158.042969 240.75 158.472656 240.75 158.902344 C 240.75 159.335938 240.710938 159.761719 240.625 160.183594 C 240.542969 160.605469 240.417969 161.015625 240.253906 161.414062 C 240.089844 161.8125 239.886719 162.191406 239.648438 162.550781 C 239.410156 162.910156 239.140625 163.242188 238.835938 163.546875 L 217.273438 185.167969 C 216.65625 185.785156 215.949219 186.261719 215.148438 186.59375 C 214.34375 186.929688 213.507812 187.09375 212.640625 187.09375 Z M 211.101562 182.0625 C 211.304688 182.265625 211.539062 182.421875 211.804688 182.53125 C 212.070312 182.640625 212.347656 182.695312 212.632812 182.695312 C 212.917969 182.695312 213.195312 182.640625 213.460938 182.53125 C 213.726562 182.421875 213.960938 182.265625 214.164062 182.0625 L 235.726562 160.441406 C 235.929688 160.238281 236.085938 160.003906 236.195312 159.738281 C 236.304688 159.472656 236.359375 159.195312 236.359375 158.90625 C 236.359375 158.621094 236.304688 158.34375 236.195312 158.078125 C 236.085938 157.8125 235.929688 157.578125 235.726562 157.375 L 198.761719 120.3125 C 198.558594 120.109375 198.328125 119.953125 198.0625 119.84375 C 197.796875 119.734375 197.519531 119.679688 197.234375 119.679688 C 196.949219 119.679688 196.671875 119.734375 196.40625 119.84375 C 196.140625 119.953125 195.910156 120.109375 195.707031 120.3125 L 174.140625 141.9375 C 173.9375 142.140625 173.78125 142.375 173.671875 142.640625 C 173.5625 142.90625 173.507812 143.183594 173.507812 143.472656 C 173.507812 143.757812 173.5625 144.035156 173.671875 144.300781 C 173.78125 144.566406 173.9375 144.800781 174.140625 145.003906 Z M 211.101562 182.0625"/><path fill="#5271ff" fill-opacity="1" fill-rule="nonzero" d="M 238.285156 160.875 L 201.597656 156.457031 C 201.351562 156.429688 201.121094 156.359375 200.898438 156.253906 C 200.675781 156.144531 200.480469 156.003906 200.304688 155.832031 C 200.132812 155.65625 199.992188 155.457031 199.882812 155.238281 C 199.777344 155.015625 199.707031 154.78125 199.679688 154.539062 L 195.273438 117.75 L 199.628906 117.226562 L 203.832031 152.296875 L 238.808594 156.503906 Z M 238.285156 160.875"/><path fill="#5271ff" fill-opacity="1" fill-rule="nonzero" d="M 171.148438 141.058594 L 199.679688 141.058594 L 199.679688 145.457031 L 171.148438 145.457031 Z M 171.148438 141.058594"/><path fill="#5271ff" fill-opacity="1" fill-rule="nonzero" d="M 210.652344 156.457031 L 215.039062 156.457031 L 215.039062 185.0625 L 210.652344 185.0625 Z M 210.652344 156.457031"/><path fill="#5271ff" fill-opacity="1" fill-rule="nonzero" d="M 240.203125 204.847656 C 239.0625 204.832031 237.96875 204.589844 236.921875 204.121094 C 235.878906 203.65625 234.96875 203 234.191406 202.160156 C 225.324219 193.269531 229.871094 185.863281 232.59375 181.4375 C 234.09375 179 234.644531 177.90625 234.191406 177.449219 C 230.847656 174.101562 224.609375 177.75 224.535156 177.785156 L 222.28125 174.007812 C 222.65625 173.789062 231.519531 168.558594 237.285156 174.339844 C 240.277344 177.328125 238.082031 180.878906 236.328125 183.742188 C 233.648438 188.101562 230.875 192.609375 237.292969 199.039062 C 237.484375 199.257812 237.699219 199.457031 237.933594 199.628906 C 238.167969 199.800781 238.414062 199.949219 238.679688 200.066406 C 238.945312 200.1875 239.21875 200.277344 239.503906 200.339844 C 239.789062 200.398438 240.078125 200.429688 240.367188 200.429688 C 240.660156 200.429688 240.945312 200.398438 241.230469 200.335938 C 241.515625 200.273438 241.789062 200.183594 242.054688 200.0625 C 242.316406 199.941406 242.566406 199.792969 242.800781 199.621094 C 243.035156 199.445312 243.246094 199.25 243.4375 199.03125 C 254.699219 187.738281 253.453125 175.140625 249.582031 171.265625 C 246.765625 168.441406 237.851562 168.257812 232.890625 168.808594 L 232.40625 164.4375 C 233.945312 164.269531 247.472656 162.925781 252.683594 168.15625 C 258.355469 173.839844 259.425781 189.21875 246.523438 202.152344 C 245.683594 202.992188 244.714844 203.644531 243.625 204.109375 C 242.53125 204.574219 241.390625 204.820312 240.203125 204.847656 Z M 240.203125 204.847656"/><path fill="#5271ff" fill-opacity="1" fill-rule="nonzero" d="M 237.863281 201.136719 L 233.605469 200.070312 C 233.738281 199.542969 236.910156 187.050781 243.425781 180.515625 L 246.53125 183.628906 C 240.871094 189.308594 237.902344 201.019531 237.863281 201.136719 Z M 237.863281 201.136719"/><path fill="#5271ff" fill-opacity="1" fill-rule="nonzero" d="M 182.171875 133.796875 L 178.410156 131.53125 C 178.445312 131.476562 182.082031 125.21875 178.738281 121.863281 C 178.28125 121.410156 177.203125 121.964844 174.761719 123.46875 C 170.347656 126.191406 162.964844 130.757812 154.09375 121.863281 C 153.507812 121.335938 153.007812 120.730469 152.597656 120.054688 C 152.183594 119.375 151.878906 118.65625 151.679688 117.886719 C 151.476562 117.121094 151.390625 116.339844 151.417969 115.550781 C 151.445312 114.757812 151.585938 113.984375 151.835938 113.234375 C 152.320312 111.816406 153.074219 110.566406 154.097656 109.476562 C 155.378906 108.097656 156.769531 106.839844 158.269531 105.703125 C 159.769531 104.566406 161.351562 103.570312 163.027344 102.710938 C 164.699219 101.847656 166.433594 101.140625 168.226562 100.582031 C 170.023438 100.023438 171.851562 99.625 173.714844 99.386719 C 179.519531 98.78125 185 100.285156 188.007812 103.300781 C 193.226562 108.53125 191.890625 122.101562 191.71875 123.632812 L 187.355469 123.144531 C 187.902344 118.175781 187.71875 109.234375 184.90625 106.425781 C 183.382812 105.242188 181.6875 104.421875 179.816406 103.960938 C 177.945312 103.5 176.0625 103.441406 174.167969 103.785156 C 170.914062 104.214844 167.828125 105.191406 164.914062 106.707031 C 162 108.222656 159.429688 110.191406 157.203125 112.609375 C 156.984375 112.804688 156.789062 113.015625 156.613281 113.25 C 156.441406 113.484375 156.292969 113.734375 156.171875 114 C 156.054688 114.265625 155.960938 114.542969 155.902344 114.828125 C 155.839844 115.113281 155.808594 115.398438 155.808594 115.691406 C 155.808594 115.984375 155.839844 116.269531 155.902344 116.554688 C 155.960938 116.839844 156.054688 117.117188 156.171875 117.382812 C 156.292969 117.648438 156.441406 117.898438 156.613281 118.132812 C 156.789062 118.367188 156.984375 118.578125 157.203125 118.773438 C 163.621094 125.203125 168.117188 122.429688 172.460938 119.742188 C 175.3125 117.980469 178.863281 115.78125 181.847656 118.773438 C 187.609375 124.523438 182.398438 133.410156 182.171875 133.796875 Z M 182.171875 133.796875"/><path fill="#5271ff" fill-opacity="1" fill-rule="nonzero" d="M 156.179688 122.433594 L 155.113281 118.175781 C 155.230469 118.144531 166.925781 115.15625 172.578125 109.488281 L 175.679688 112.601562 C 169.171875 119.125 156.707031 122.304688 156.179688 122.433594 Z M 156.179688 122.433594"/><g clip-path="url(#62e9aadf65)"><path fill="#5271ff" fill-opacity="1" fill-rule="nonzero" d="M 143.855469 218.0625 C 143 218.066406 142.175781 217.902344 141.386719 217.574219 C 140.59375 217.246094 139.894531 216.777344 139.289062 216.171875 L 118.175781 195 C 117.875 194.699219 117.609375 194.375 117.371094 194.019531 C 117.136719 193.664062 116.9375 193.292969 116.777344 192.898438 C 116.613281 192.507812 116.492188 192.101562 116.410156 191.683594 C 116.324219 191.265625 116.285156 190.847656 116.285156 190.421875 C 116.285156 189.996094 116.324219 189.574219 116.410156 189.15625 C 116.492188 188.738281 116.613281 188.335938 116.777344 187.941406 C 116.9375 187.546875 117.136719 187.175781 117.371094 186.820312 C 117.609375 186.46875 117.875 186.140625 118.175781 185.839844 L 154.367188 149.554688 C 154.667969 149.253906 154.996094 148.988281 155.347656 148.75 C 155.703125 148.515625 156.074219 148.316406 156.464844 148.152344 C 156.859375 147.992188 157.261719 147.867188 157.675781 147.785156 C 158.09375 147.703125 158.511719 147.664062 158.9375 147.664062 C 159.359375 147.664062 159.78125 147.703125 160.195312 147.785156 C 160.613281 147.867188 161.015625 147.992188 161.410156 148.152344 C 161.800781 148.316406 162.171875 148.515625 162.523438 148.75 C 162.878906 148.988281 163.203125 149.253906 163.503906 149.554688 L 184.617188 170.71875 C 184.917969 171.019531 185.1875 171.347656 185.421875 171.703125 C 185.65625 172.054688 185.855469 172.429688 186.019531 172.820312 C 186.179688 173.214844 186.304688 173.621094 186.386719 174.039062 C 186.46875 174.453125 186.511719 174.875 186.511719 175.300781 C 186.511719 175.726562 186.46875 176.148438 186.386719 176.566406 C 186.304688 176.980469 186.179688 177.386719 186.019531 177.78125 C 185.855469 178.171875 185.65625 178.546875 185.421875 178.898438 C 185.1875 179.253906 184.917969 179.582031 184.617188 179.882812 L 148.425781 216.167969 C 147.820312 216.773438 147.121094 217.242188 146.332031 217.570312 C 145.539062 217.898438 144.714844 218.0625 143.855469 218.0625 Z M 158.9375 152.058594 C 158.367188 152.058594 157.878906 152.257812 157.472656 152.664062 L 121.28125 188.953125 C 121.085938 189.148438 120.9375 189.371094 120.832031 189.625 C 120.726562 189.882812 120.671875 190.144531 120.671875 190.421875 C 120.671875 190.695312 120.726562 190.960938 120.832031 191.214844 C 120.9375 191.472656 121.085938 191.695312 121.28125 191.890625 L 142.390625 213.054688 C 142.585938 213.25 142.808594 213.398438 143.0625 213.503906 C 143.316406 213.609375 143.582031 213.660156 143.855469 213.660156 C 144.128906 213.660156 144.394531 213.609375 144.648438 213.503906 C 144.898438 213.398438 145.125 213.25 145.320312 213.054688 L 181.515625 176.769531 C 181.710938 176.574219 181.859375 176.347656 181.964844 176.09375 C 182.070312 175.839844 182.121094 175.574219 182.121094 175.300781 C 182.121094 175.023438 182.070312 174.757812 181.964844 174.503906 C 181.859375 174.25 181.710938 174.027344 181.515625 173.832031 L 160.402344 152.664062 C 160 152.257812 159.511719 152.058594 158.9375 152.058594 Z M 158.9375 152.058594"/></g><path fill="#5271ff" fill-opacity="1" fill-rule="nonzero" d="M 118.753906 192.394531 L 118.230469 188.023438 L 152.441406 183.90625 L 156.546875 149.609375 L 160.90625 150.132812 L 156.59375 186.144531 C 156.5625 186.390625 156.496094 186.625 156.386719 186.84375 C 156.28125 187.066406 156.140625 187.265625 155.964844 187.4375 C 155.792969 187.613281 155.59375 187.753906 155.375 187.863281 C 155.152344 187.96875 154.921875 188.039062 154.675781 188.070312 Z M 118.753906 192.394531"/><path fill="#5271ff" fill-opacity="1" fill-rule="nonzero" d="M 142.621094 187.261719 L 147.007812 187.261719 L 147.007812 215.863281 L 142.621094 215.863281 Z M 142.621094 187.261719"/><path fill="#5271ff" fill-opacity="1" fill-rule="nonzero" d="M 155.785156 174.058594 L 184.316406 174.058594 L 184.316406 178.460938 L 155.785156 178.460938 Z M 155.785156 174.058594"/><path fill="#5271ff" fill-opacity="1" fill-rule="nonzero" d="M 168.953125 200.460938 L 197.484375 200.460938 L 197.484375 204.863281 L 168.953125 204.863281 Z M 168.953125 200.460938"/><path fill="#5271ff" fill-opacity="1" fill-rule="nonzero" d="M 201.871094 200.460938 L 206.261719 200.460938 L 206.261719 204.863281 L 201.871094 204.863281 Z M 201.871094 200.460938"/><path fill="#5271ff" fill-opacity="1" fill-rule="nonzero" d="M 188.707031 209.261719 L 221.625 209.261719 L 221.625 213.664062 L 188.707031 213.664062 Z M 188.707031 209.261719"/><path fill="#5271ff" fill-opacity="1" fill-rule="nonzero" d="M 226.011719 209.261719 L 230.402344 209.261719 L 230.402344 213.664062 L 226.011719 213.664062 Z M 226.011719 209.261719"/><path fill="#5271ff" fill-opacity="1" fill-rule="nonzero" d="M 184.316406 191.660156 L 212.84375 191.660156 L 212.84375 196.0625 L 184.316406 196.0625 Z M 184.316406 191.660156"/><path fill="#5271ff" fill-opacity="1" fill-rule="nonzero" d="M 217.234375 191.660156 L 221.625 191.660156 L 221.625 196.0625 L 217.234375 196.0625 Z M 217.234375 191.660156"/><g fill="#000" fill-opacity="1"><g><g><path d="M 3.28125 0 C 3.03125 0 2.828125 -0.078125 2.671875 -0.234375 C 2.523438 -0.390625 2.453125 -0.585938 2.453125 -0.828125 L 2.453125 -22.34375 C 2.453125 -22.59375 2.523438 -22.789062 2.671875 -22.9375 C 2.828125 -23.09375 3.03125 -23.171875 3.28125 -23.171875 L 6.390625 -23.171875 C 6.722656 -23.171875 6.972656 -23.082031 7.140625 -22.90625 C 7.304688 -22.726562 7.410156 -22.597656 7.453125 -22.515625 L 13.578125 -11.328125 L 19.703125 -22.515625 C 19.742188 -22.597656 19.847656 -22.726562 20.015625 -22.90625 C 20.179688 -23.082031 20.429688 -23.171875 20.765625 -23.171875 L 23.84375 -23.171875 C 24.082031 -23.171875 24.28125 -23.09375 24.4375 -22.9375 C 24.59375 -22.789062 24.671875 -22.59375 24.671875 -22.34375 L 24.671875 -0.828125 C 24.671875 -0.585938 24.59375 -0.390625 24.4375 -0.234375 C 24.28125 -0.078125 24.082031 0 23.84375 0 L 20.46875 0 C 20.238281 0 20.046875 -0.078125 19.890625 -0.234375 C 19.742188 -0.390625 19.671875 -0.585938 19.671875 -0.828125 L 19.671875 -14.171875 L 15.46875 -6.328125 C 15.375 -6.128906 15.238281 -5.953125 15.0625 -5.796875 C 14.882812 -5.640625 14.644531 -5.5625 14.34375 -5.5625 L 12.78125 -5.5625 C 12.488281 -5.5625 12.253906 -5.640625 12.078125 -5.796875 C 11.898438 -5.953125 11.757812 -6.128906 11.65625 -6.328125 L 7.484375 -14.171875 L 7.484375 -0.828125 C 7.484375 -0.585938 7.40625 -0.390625 7.25 -0.234375 C 7.09375 -0.078125 6.894531 0 6.65625 0 Z M 3.28125 0" transform="translate(62.877082, 267.079246)"/></g></g></g><g fill="#000" fill-opacity="1"><g><g><path d="M 11.921875 0.328125 C 9.972656 0.328125 8.269531 0.00390625 6.8125 -0.640625 C 5.363281 -1.296875 4.238281 -2.300781 3.4375 -3.65625 C 2.644531 -5.007812 2.25 -6.738281 2.25 -8.84375 L 2.25 -22.34375 C 2.25 -22.59375 2.328125 -22.789062 2.484375 -22.9375 C 2.640625 -23.09375 2.828125 -23.171875 3.046875 -23.171875 L 6.6875 -23.171875 C 6.925781 -23.171875 7.125 -23.09375 7.28125 -22.9375 C 7.4375 -22.789062 7.515625 -22.59375 7.515625 -22.34375 L 7.515625 -8.875 C 7.515625 -7.257812 7.898438 -6.054688 8.671875 -5.265625 C 9.441406 -4.472656 10.523438 -4.078125 11.921875 -4.078125 C 13.285156 -4.078125 14.351562 -4.472656 15.125 -5.265625 C 15.90625 -6.054688 16.296875 -7.257812 16.296875 -8.875 L 16.296875 -22.34375 C 16.296875 -22.59375 16.375 -22.789062 16.53125 -22.9375 C 16.695312 -23.09375 16.894531 -23.171875 17.125 -23.171875 L 20.765625 -23.171875 C 20.984375 -23.171875 21.164062 -23.09375 21.3125 -22.9375 C 21.46875 -22.789062 21.546875 -22.59375 21.546875 -22.34375 L 21.546875 -8.84375 C 21.546875 -6.738281 21.15625 -5.007812 20.375 -3.65625 C 19.59375 -2.300781 18.476562 -1.296875 17.03125 -0.640625 C 15.582031 0.00390625 13.878906 0.328125 11.921875 0.328125 Z M 11.921875 0.328125" transform="translate(93.962644, 267.079246)"/></g></g></g><g fill="#000" fill-opacity="1"><g><g><path d="M 3.25 0 C 3.019531 0 2.828125 -0.078125 2.671875 -0.234375 C 2.523438 -0.390625 2.453125 -0.585938 2.453125 -0.828125 L 2.453125 -22.34375 C 2.453125 -22.59375 2.523438 -22.789062 2.671875 -22.9375 C 2.828125 -23.09375 3.019531 -23.171875 3.25 -23.171875 L 6.984375 -23.171875 C 7.203125 -23.171875 7.390625 -23.09375 7.546875 -22.9375 C 7.703125 -22.789062 7.78125 -22.59375 7.78125 -22.34375 L 7.78125 -4.46875 L 18.046875 -4.46875 C 18.285156 -4.46875 18.484375 -4.390625 18.640625 -4.234375 C 18.796875 -4.078125 18.875 -3.878906 18.875 -3.640625 L 18.875 -0.828125 C 18.875 -0.585938 18.796875 -0.390625 18.640625 -0.234375 C 18.484375 -0.078125 18.285156 0 18.046875 0 Z M 3.25 0" transform="translate(121.737874, 267.079246)"/></g></g></g><g fill="#000" fill-opacity="1"><g><g><path d="M 8.375 0 C 8.132812 0 7.9375 -0.078125 7.78125 -0.234375 C 7.625 -0.390625 7.546875 -0.585938 7.546875 -0.828125 L 7.546875 -18.546875 L 1.515625 -18.546875 C 1.296875 -18.546875 1.109375 -18.617188 0.953125 -18.765625 C 0.804688 -18.921875 0.734375 -19.125 0.734375 -19.375 L 0.734375 -22.34375 C 0.734375 -22.59375 0.804688 -22.789062 0.953125 -22.9375 C 1.109375 -23.09375 1.296875 -23.171875 1.515625 -23.171875 L 18.875 -23.171875 C 19.113281 -23.171875 19.3125 -23.09375 19.46875 -22.9375 C 19.625 -22.789062 19.703125 -22.59375 19.703125 -22.34375 L 19.703125 -19.375 C 19.703125 -19.125 19.625 -18.921875 19.46875 -18.765625 C 19.3125 -18.617188 19.113281 -18.546875 18.875 -18.546875 L 12.875 -18.546875 L 12.875 -0.828125 C 12.875 -0.585938 12.796875 -0.390625 12.640625 -0.234375 C 12.492188 -0.078125 12.296875 0 12.046875 0 Z M 8.375 0" transform="translate(145.176568, 267.079246)"/></g></g></g><g fill="#000" fill-opacity="1"><g><g><path d="M 3.25 0 C 3.019531 0 2.828125 -0.078125 2.671875 -0.234375 C 2.523438 -0.390625 2.453125 -0.585938 2.453125 -0.828125 L 2.453125 -22.34375 C 2.453125 -22.59375 2.523438 -22.789062 2.671875 -22.9375 C 2.828125 -23.09375 3.019531 -23.171875 3.25 -23.171875 L 7.046875 -23.171875 C 7.273438 -23.171875 7.460938 -23.09375 7.609375 -22.9375 C 7.765625 -22.789062 7.84375 -22.59375 7.84375 -22.34375 L 7.84375 -0.828125 C 7.84375 -0.585938 7.765625 -0.390625 7.609375 -0.234375 C 7.460938 -0.078125 7.273438 0 7.046875 0 Z M 3.25 0" transform="translate(169.575255, 267.079246)"/></g></g></g><g fill="#000" fill-opacity="1"><g><g><path d="M 3.25 0 C 3.019531 0 2.828125 -0.078125 2.671875 -0.234375 C 2.523438 -0.390625 2.453125 -0.585938 2.453125 -0.828125 L 2.453125 -22.34375 C 2.453125 -22.59375 2.523438 -22.789062 2.671875 -22.9375 C 2.828125 -23.09375 3.019531 -23.171875 3.25 -23.171875 L 18.28125 -23.171875 C 18.519531 -23.171875 18.71875 -23.09375 18.875 -22.9375 C 19.03125 -22.789062 19.109375 -22.59375 19.109375 -22.34375 L 19.109375 -19.703125 C 19.109375 -19.453125 19.03125 -19.25 18.875 -19.09375 C 18.71875 -18.945312 18.519531 -18.875 18.28125 -18.875 L 7.546875 -18.875 L 7.546875 -13.703125 L 17.546875 -13.703125 C 17.785156 -13.703125 17.984375 -13.625 18.140625 -13.46875 C 18.296875 -13.320312 18.375 -13.125 18.375 -12.875 L 18.375 -10.421875 C 18.375 -10.203125 18.296875 -10.007812 18.140625 -9.84375 C 17.984375 -9.6875 17.785156 -9.609375 17.546875 -9.609375 L 7.546875 -9.609375 L 7.546875 -4.296875 L 18.546875 -4.296875 C 18.785156 -4.296875 18.984375 -4.21875 19.140625 -4.0625 C 19.296875 -3.914062 19.375 -3.71875 19.375 -3.46875 L 19.375 -0.828125 C 19.375 -0.585938 19.296875 -0.390625 19.140625 -0.234375 C 18.984375 -0.078125 18.785156 0 18.546875 0 Z M 3.25 0" transform="translate(195.134143, 267.079246)"/></g></g></g><g fill="#000" fill-opacity="1"><g><g><path d="M 3.28125 0 C 3.03125 0 2.828125 -0.078125 2.671875 -0.234375 C 2.523438 -0.390625 2.453125 -0.585938 2.453125 -0.828125 L 2.453125 -22.34375 C 2.453125 -22.59375 2.523438 -22.789062 2.671875 -22.9375 C 2.828125 -23.09375 3.03125 -23.171875 3.28125 -23.171875 L 6.390625 -23.171875 C 6.722656 -23.171875 6.972656 -23.082031 7.140625 -22.90625 C 7.304688 -22.726562 7.410156 -22.597656 7.453125 -22.515625 L 13.578125 -11.328125 L 19.703125 -22.515625 C 19.742188 -22.597656 19.847656 -22.726562 20.015625 -22.90625 C 20.179688 -23.082031 20.429688 -23.171875 20.765625 -23.171875 L 23.84375 -23.171875 C 24.082031 -23.171875 24.28125 -23.09375 24.4375 -22.9375 C 24.59375 -22.789062 24.671875 -22.59375 24.671875 -22.34375 L 24.671875 -0.828125 C 24.671875 -0.585938 24.59375 -0.390625 24.4375 -0.234375 C 24.28125 -0.078125 24.082031 0 23.84375 0 L 20.46875 0 C 20.238281 0 20.046875 -0.078125 19.890625 -0.234375 C 19.742188 -0.390625 19.671875 -0.585938 19.671875 -0.828125 L 19.671875 -14.171875 L 15.46875 -6.328125 C 15.375 -6.128906 15.238281 -5.953125 15.0625 -5.796875 C 14.882812 -5.640625 14.644531 -5.5625 14.34375 -5.5625 L 12.78125 -5.5625 C 12.488281 -5.5625 12.253906 -5.640625 12.078125 -5.796875 C 11.898438 -5.953125 11.757812 -6.128906 11.65625 -6.328125 L 7.484375 -14.171875 L 7.484375 -0.828125 C 7.484375 -0.585938 7.40625 -0.390625 7.25 -0.234375 C 7.09375 -0.078125 6.894531 0 6.65625 0 Z M 3.28125 0" transform="translate(219.996292, 267.079246)"/></g></g></g><g fill="#000" fill-opacity="1"><g><g><path d="M 1.09375 0 C 0.894531 0 0.726562 -0.0703125 0.59375 -0.21875 C 0.457031 -0.363281 0.390625 -0.519531 0.390625 -0.6875 C 0.390625 -0.800781 0.40625 -0.90625 0.4375 -1 L 8.3125 -22.28125 C 8.375 -22.519531 8.503906 -22.726562 8.703125 -22.90625 C 8.898438 -23.082031 9.175781 -23.171875 9.53125 -23.171875 L 13.78125 -23.171875 C 14.125 -23.171875 14.394531 -23.082031 14.59375 -22.90625 C 14.800781 -22.726562 14.945312 -22.519531 15.03125 -22.28125 L 22.875 -1 C 22.914062 -0.90625 22.9375 -0.800781 22.9375 -0.6875 C 22.9375 -0.519531 22.863281 -0.363281 22.71875 -0.21875 C 22.582031 -0.0703125 22.414062 0 22.21875 0 L 18.734375 0 C 18.429688 0 18.203125 -0.078125 18.046875 -0.234375 C 17.890625 -0.390625 17.789062 -0.53125 17.75 -0.65625 L 16.328125 -4.375 L 6.984375 -4.375 L 5.59375 -0.65625 C 5.53125 -0.53125 5.425781 -0.390625 5.28125 -0.234375 C 5.132812 -0.078125 4.894531 0 4.5625 0 Z M 8.25 -8.640625 L 15.0625 -8.640625 L 11.65625 -18.140625 Z M 8.25 -8.640625" transform="translate(251.081854, 267.079246)"/></g></g></g><g fill="#000" fill-opacity="1"><g><g><path d="M 3.25 0 C 3.019531 0 2.828125 -0.078125 2.671875 -0.234375 C 2.523438 -0.390625 2.453125 -0.585938 2.453125 -0.828125 L 2.453125 -22.34375 C 2.453125 -22.59375 2.523438 -22.789062 2.671875 -22.9375 C 2.828125 -23.09375 3.019531 -23.171875 3.25 -23.171875 L 7.046875 -23.171875 C 7.273438 -23.171875 7.460938 -23.09375 7.609375 -22.9375 C 7.765625 -22.789062 7.84375 -22.59375 7.84375 -22.34375 L 7.84375 -0.828125 C 7.84375 -0.585938 7.765625 -0.390625 7.609375 -0.234375 C 7.460938 -0.078125 7.273438 0 7.046875 0 Z M 3.25 0" transform="translate(278.360544, 267.079246)"/></g></g></g><g fill="#000" fill-opacity="1"><g><g><path d="M 3.25 0 C 3.019531 0 2.828125 -0.078125 2.671875 -0.234375 C 2.523438 -0.390625 2.453125 -0.585938 2.453125 -0.828125 L 2.453125 -22.34375 C 2.453125 -22.59375 2.523438 -22.789062 2.671875 -22.9375 C 2.828125 -23.09375 3.019531 -23.171875 3.25 -23.171875 L 6.984375 -23.171875 C 7.203125 -23.171875 7.390625 -23.09375 7.546875 -22.9375 C 7.703125 -22.789062 7.78125 -22.59375 7.78125 -22.34375 L 7.78125 -4.46875 L 18.046875 -4.46875 C 18.285156 -4.46875 18.484375 -4.390625 18.640625 -4.234375 C 18.796875 -4.078125 18.875 -3.878906 18.875 -3.640625 L 18.875 -0.828125 C 18.875 -0.585938 18.796875 -0.390625 18.640625 -0.234375 C 18.484375 -0.078125 18.285156 0 18.046875 0 Z M 3.25 0" transform="translate(292.629651, 267.079246)"/></g></g></g></svg>