<svg xmlns="http://www.w3.org/2000/svg" xmlns:xlink="http://www.w3.org/1999/xlink" width="500" height="500" preserveAspectRatio="xMidYMid meet" version="1.0" viewBox="0 0 375 375" zoomAndPan="magnify"><defs><clipPath id="22a9eb8032"><path d="M 122 81.121094 L 196 81.121094 L 196 144 L 122 144 Z M 122 81.121094" clip-rule="nonzero"/></clipPath><clipPath id="6c23039c19"><path d="M 60 168 L 186 168 L 186 294.121094 L 60 294.121094 Z M 60 168" clip-rule="nonzero"/></clipPath></defs><path fill="#5271ff" fill-opacity="1" fill-rule="nonzero" d="M 232.46875 238.804688 C 230.914062 238.808594 229.417969 238.511719 227.984375 237.917969 C 226.546875 237.324219 225.28125 236.476562 224.179688 235.375 L 158.058594 169.171875 C 157.515625 168.625 157.03125 168.03125 156.605469 167.390625 C 156.175781 166.75 155.816406 166.074219 155.523438 165.363281 C 155.230469 164.652344 155.007812 163.917969 154.855469 163.164062 C 154.707031 162.40625 154.632812 161.644531 154.632812 160.875 C 154.632812 160.105469 154.707031 159.34375 154.855469 158.585938 C 155.007812 157.832031 155.230469 157.097656 155.523438 156.386719 C 155.816406 155.675781 156.175781 155 156.605469 154.359375 C 157.03125 153.71875 157.515625 153.125 158.058594 152.578125 L 196.628906 113.964844 C 197.175781 113.421875 197.765625 112.933594 198.40625 112.507812 C 199.046875 112.082031 199.722656 111.71875 200.433594 111.425781 C 201.144531 111.132812 201.875 110.910156 202.628906 110.757812 C 203.386719 110.609375 204.148438 110.535156 204.914062 110.535156 C 205.683594 110.535156 206.445312 110.609375 207.203125 110.757812 C 207.957031 110.910156 208.6875 111.132812 209.398438 111.425781 C 210.109375 111.71875 210.785156 112.082031 211.425781 112.507812 C 212.066406 112.933594 212.65625 113.421875 213.203125 113.964844 L 279.324219 180.15625 C 279.867188 180.699219 280.351562 181.292969 280.78125 181.933594 C 281.207031 182.574219 281.566406 183.25 281.859375 183.960938 C 282.15625 184.675781 282.375 185.40625 282.527344 186.164062 C 282.675781 186.917969 282.75 187.679688 282.75 188.453125 C 282.75 189.222656 282.675781 189.984375 282.527344 190.738281 C 282.375 191.496094 282.15625 192.226562 281.859375 192.941406 C 281.566406 193.652344 281.207031 194.328125 280.78125 194.96875 C 280.351562 195.609375 279.867188 196.203125 279.324219 196.746094 L 240.753906 235.367188 C 239.65625 236.46875 238.390625 237.316406 236.953125 237.914062 C 235.519531 238.507812 234.023438 238.804688 232.46875 238.804688 Z M 229.71875 229.816406 C 230.082031 230.179688 230.5 230.460938 230.976562 230.65625 C 231.449219 230.851562 231.941406 230.949219 232.457031 230.949219 C 232.96875 230.949219 233.460938 230.851562 233.9375 230.65625 C 234.410156 230.460938 234.828125 230.179688 235.191406 229.816406 L 273.761719 191.199219 C 274.125 190.835938 274.402344 190.414062 274.601562 189.941406 C 274.796875 189.464844 274.894531 188.972656 274.894531 188.460938 C 274.894531 187.945312 274.796875 187.453125 274.601562 186.976562 C 274.402344 186.503906 274.125 186.082031 273.761719 185.71875 L 207.648438 119.519531 C 207.285156 119.160156 206.867188 118.878906 206.394531 118.683594 C 205.917969 118.488281 205.425781 118.390625 204.914062 118.390625 C 204.402344 118.390625 203.910156 118.488281 203.433594 118.683594 C 202.960938 118.878906 202.542969 119.160156 202.179688 119.519531 L 163.609375 158.148438 C 163.246094 158.511719 162.96875 158.929688 162.769531 159.40625 C 162.574219 159.878906 162.476562 160.375 162.476562 160.886719 C 162.476562 161.402344 162.574219 161.894531 162.769531 162.371094 C 162.96875 162.84375 163.246094 163.261719 163.609375 163.625 Z M 229.71875 229.816406"/><path fill="#5271ff" fill-opacity="1" fill-rule="nonzero" d="M 278.339844 191.976562 L 212.714844 184.085938 C 212.277344 184.03125 211.863281 183.910156 211.46875 183.71875 C 211.070312 183.527344 210.71875 183.273438 210.40625 182.964844 C 210.097656 182.652344 209.84375 182.300781 209.652344 181.902344 C 209.460938 181.507812 209.335938 181.089844 209.285156 180.65625 L 201.40625 114.945312 L 209.199219 114.011719 L 216.710938 176.648438 L 279.277344 184.167969 Z M 278.339844 191.976562"/><path fill="#5271ff" fill-opacity="1" fill-rule="nonzero" d="M 158.253906 156.574219 L 209.285156 156.574219 L 209.285156 164.4375 L 158.253906 164.4375 Z M 158.253906 156.574219"/><path fill="#5271ff" fill-opacity="1" fill-rule="nonzero" d="M 228.910156 184.085938 L 236.761719 184.085938 L 236.761719 235.171875 L 228.910156 235.171875 Z M 228.910156 184.085938"/><path fill="#5271ff" fill-opacity="1" fill-rule="nonzero" d="M 281.773438 270.519531 C 279.730469 270.488281 277.773438 270.054688 275.90625 269.21875 C 274.035156 268.382812 272.40625 267.214844 271.019531 265.714844 C 255.15625 249.832031 263.292969 236.609375 268.160156 228.707031 C 270.84375 224.347656 271.832031 222.394531 271.019531 221.582031 C 265.039062 215.59375 253.875 222.113281 253.746094 222.175781 L 249.714844 215.433594 C 250.386719 215.039062 266.242188 205.699219 276.554688 216.023438 C 281.902344 221.359375 277.976562 227.707031 274.839844 232.816406 C 270.046875 240.605469 265.085938 248.65625 276.566406 260.144531 C 276.910156 260.535156 277.289062 260.886719 277.707031 261.195312 C 278.128906 261.503906 278.574219 261.765625 279.046875 261.980469 C 279.523438 262.191406 280.011719 262.355469 280.523438 262.464844 C 281.03125 262.574219 281.546875 262.625 282.066406 262.625 C 282.585938 262.625 283.097656 262.570312 283.609375 262.457031 C 284.117188 262.347656 284.605469 262.183594 285.082031 261.96875 C 285.554688 261.753906 286 261.488281 286.417969 261.179688 C 286.832031 260.867188 287.214844 260.515625 287.554688 260.125 C 307.699219 239.957031 305.46875 217.457031 298.546875 210.535156 C 293.511719 205.492188 277.566406 205.160156 268.691406 206.148438 L 267.828125 198.335938 C 270.574219 198.039062 294.769531 195.636719 304.097656 204.976562 C 314.242188 215.132812 316.152344 242.601562 293.078125 265.699219 C 291.574219 267.199219 289.84375 268.363281 287.890625 269.195312 C 285.933594 270.03125 283.898438 270.46875 281.773438 270.519531 Z M 281.773438 270.519531"/><path fill="#5271ff" fill-opacity="1" fill-rule="nonzero" d="M 277.585938 263.890625 L 269.96875 261.984375 C 270.207031 261.039062 275.878906 238.726562 287.53125 227.058594 L 293.085938 232.617188 C 282.96875 242.761719 277.652344 263.679688 277.585938 263.890625 Z M 277.585938 263.890625"/><g clip-path="url(#22a9eb8032)"><path fill="#5271ff" fill-opacity="1" fill-rule="nonzero" d="M 177.972656 143.605469 L 171.246094 139.5625 C 171.304688 139.460938 177.8125 128.285156 171.832031 122.296875 C 171.011719 121.480469 169.085938 122.472656 164.714844 125.160156 C 156.824219 130.027344 143.617188 138.179688 127.75 122.296875 C 126.699219 121.347656 125.808594 120.269531 125.070312 119.058594 C 124.335938 117.851562 123.789062 116.5625 123.429688 115.191406 C 123.070312 113.820312 122.914062 112.429688 122.960938 111.015625 C 123.011719 109.597656 123.261719 108.21875 123.710938 106.878906 C 124.574219 104.347656 125.925781 102.113281 127.757812 100.171875 C 130.050781 97.707031 132.535156 95.460938 135.21875 93.429688 C 137.898438 91.398438 140.734375 89.617188 143.726562 88.082031 C 146.71875 86.542969 149.816406 85.277344 153.027344 84.28125 C 156.242188 83.285156 159.511719 82.574219 162.847656 82.148438 C 173.230469 81.066406 183.03125 83.75 188.414062 89.140625 C 197.746094 98.480469 195.355469 122.71875 195.046875 125.453125 L 187.242188 124.582031 C 188.222656 115.707031 187.894531 99.738281 182.863281 94.714844 C 181.515625 93.671875 180.078125 92.777344 178.542969 92.039062 C 177.007812 91.296875 175.414062 90.722656 173.761719 90.316406 C 172.105469 89.910156 170.425781 89.679688 168.726562 89.628906 C 167.023438 89.574219 165.332031 89.699219 163.65625 90 C 160.765625 90.382812 157.933594 91.011719 155.152344 91.890625 C 152.375 92.765625 149.691406 93.878906 147.105469 95.222656 C 144.515625 96.566406 142.066406 98.125 139.75 99.894531 C 137.433594 101.664062 135.285156 103.621094 133.308594 105.765625 C 132.917969 106.109375 132.566406 106.492188 132.257812 106.910156 C 131.945312 107.328125 131.683594 107.773438 131.46875 108.246094 C 131.253906 108.722656 131.09375 109.214844 130.980469 109.722656 C 130.871094 110.230469 130.816406 110.746094 130.816406 111.269531 C 130.816406 111.789062 130.871094 112.304688 130.980469 112.8125 C 131.09375 113.324219 131.253906 113.8125 131.46875 114.289062 C 131.683594 114.761719 131.945312 115.210938 132.257812 115.628906 C 132.566406 116.046875 132.917969 116.425781 133.308594 116.769531 C 144.789062 128.261719 152.832031 123.300781 160.601562 118.503906 C 165.707031 115.359375 172.054688 111.429688 177.390625 116.769531 C 187.695312 127.046875 178.375 142.914062 177.972656 143.605469 Z M 177.972656 143.605469"/></g><path fill="#5271ff" fill-opacity="1" fill-rule="nonzero" d="M 131.480469 123.308594 L 129.574219 115.707031 C 129.785156 115.648438 150.703125 110.308594 160.8125 100.1875 L 166.359375 105.746094 C 154.722656 117.398438 132.421875 123.078125 131.480469 123.308594 Z M 131.480469 123.308594"/><g clip-path="url(#6c23039c19)"><path fill="#5271ff" fill-opacity="1" fill-rule="nonzero" d="M 109.441406 294.121094 C 107.90625 294.125 106.433594 293.835938 105.019531 293.25 C 103.601562 292.664062 102.351562 291.828125 101.269531 290.742188 L 63.503906 252.929688 C 62.96875 252.390625 62.488281 251.808594 62.066406 251.175781 C 61.648438 250.542969 61.289062 249.875 61 249.175781 C 60.710938 248.472656 60.492188 247.75 60.34375 247.003906 C 60.195312 246.257812 60.121094 245.507812 60.121094 244.746094 C 60.121094 243.988281 60.195312 243.234375 60.34375 242.488281 C 60.492188 241.746094 60.710938 241.019531 61 240.320312 C 61.289062 239.617188 61.648438 238.949219 62.066406 238.320312 C 62.488281 237.6875 62.96875 237.101562 63.503906 236.566406 L 128.242188 171.753906 C 128.777344 171.21875 129.363281 170.738281 129.996094 170.316406 C 130.625 169.898438 131.292969 169.542969 131.992188 169.25 C 132.691406 168.960938 133.414062 168.742188 134.160156 168.59375 C 134.902344 168.449219 135.65625 168.375 136.414062 168.375 C 137.171875 168.375 137.921875 168.449219 138.664062 168.59375 C 139.410156 168.742188 140.132812 168.960938 140.832031 169.25 C 141.535156 169.542969 142.199219 169.898438 142.832031 170.316406 C 143.460938 170.738281 144.046875 171.21875 144.582031 171.753906 L 182.347656 209.558594 C 182.886719 210.097656 183.363281 210.679688 183.785156 211.3125 C 184.207031 211.945312 184.5625 212.609375 184.855469 213.3125 C 185.144531 214.015625 185.363281 214.738281 185.511719 215.484375 C 185.660156 216.230469 185.734375 216.980469 185.734375 217.742188 C 185.734375 218.5 185.660156 219.253906 185.511719 219.996094 C 185.363281 220.742188 185.144531 221.464844 184.855469 222.167969 C 184.5625 222.871094 184.207031 223.539062 183.785156 224.167969 C 183.363281 224.800781 182.886719 225.386719 182.347656 225.921875 L 117.613281 290.734375 C 116.527344 291.820312 115.277344 292.65625 113.863281 293.242188 C 112.445312 293.832031 110.972656 294.125 109.441406 294.121094 Z M 136.414062 176.226562 C 135.394531 176.222656 134.519531 176.585938 133.796875 177.304688 L 69.054688 242.125 C 68.707031 242.472656 68.441406 242.875 68.253906 243.328125 C 68.0625 243.785156 67.96875 244.257812 67.96875 244.75 C 67.96875 245.242188 68.0625 245.714844 68.253906 246.167969 C 68.441406 246.625 68.707031 247.023438 69.054688 247.371094 L 106.816406 285.175781 C 107.164062 285.523438 107.566406 285.789062 108.019531 285.976562 C 108.472656 286.164062 108.945312 286.257812 109.4375 286.257812 C 109.925781 286.257812 110.398438 286.164062 110.851562 285.976562 C 111.304688 285.789062 111.707031 285.523438 112.054688 285.175781 L 176.796875 220.363281 C 177.144531 220.015625 177.414062 219.613281 177.601562 219.160156 C 177.789062 218.703125 177.882812 218.230469 177.882812 217.738281 C 177.882812 217.246094 177.789062 216.773438 177.601562 216.320312 C 177.414062 215.863281 177.144531 215.464844 176.796875 215.117188 L 139.035156 177.308594 C 138.3125 176.585938 137.4375 176.222656 136.414062 176.226562 Z M 136.414062 176.226562"/></g><path fill="#5271ff" fill-opacity="1" fill-rule="nonzero" d="M 64.539062 248.273438 L 63.601562 240.46875 L 124.792969 233.109375 L 132.140625 171.851562 L 139.9375 172.785156 L 132.21875 237.109375 C 132.167969 237.546875 132.042969 237.964844 131.851562 238.359375 C 131.660156 238.757812 131.410156 239.109375 131.097656 239.421875 C 130.789062 239.734375 130.433594 239.984375 130.039062 240.175781 C 129.644531 240.371094 129.226562 240.492188 128.792969 240.546875 Z M 64.539062 248.273438"/><path fill="#5271ff" fill-opacity="1" fill-rule="nonzero" d="M 107.226562 239.105469 L 115.078125 239.105469 L 115.078125 290.191406 L 107.226562 290.191406 Z M 107.226562 239.105469"/><path fill="#5271ff" fill-opacity="1" fill-rule="nonzero" d="M 130.777344 215.523438 L 181.808594 215.523438 L 181.808594 223.382812 L 130.777344 223.382812 Z M 130.777344 215.523438"/><path fill="#5271ff" fill-opacity="1" fill-rule="nonzero" d="M 154.328125 262.683594 L 205.359375 262.683594 L 205.359375 270.542969 L 154.328125 270.542969 Z M 154.328125 262.683594"/><path fill="#5271ff" fill-opacity="1" fill-rule="nonzero" d="M 213.210938 262.683594 L 221.0625 262.683594 L 221.0625 270.542969 L 213.210938 270.542969 Z M 213.210938 262.683594"/><path fill="#5271ff" fill-opacity="1" fill-rule="nonzero" d="M 189.65625 278.402344 L 248.539062 278.402344 L 248.539062 286.261719 L 189.65625 286.261719 Z M 189.65625 278.402344"/><path fill="#5271ff" fill-opacity="1" fill-rule="nonzero" d="M 256.390625 278.402344 L 264.238281 278.402344 L 264.238281 286.261719 L 256.390625 286.261719 Z M 256.390625 278.402344"/><path fill="#5271ff" fill-opacity="1" fill-rule="nonzero" d="M 181.808594 246.964844 L 232.835938 246.964844 L 232.835938 254.824219 L 181.808594 254.824219 Z M 181.808594 246.964844"/><path fill="#5271ff" fill-opacity="1" fill-rule="nonzero" d="M 240.6875 246.964844 L 248.539062 246.964844 L 248.539062 254.824219 L 240.6875 254.824219 Z M 240.6875 246.964844"/></svg>