<svg xmlns="http://www.w3.org/2000/svg" xmlns:xlink="http://www.w3.org/1999/xlink" width="500" height="500" preserveAspectRatio="xMidYMid meet" version="1.0" viewBox="0 0 375 375" zoomAndPan="magnify"><defs><clipPath id="7aa9572435"><path d="M 65 169 L 186 169 L 186 289.125 L 65 289.125 Z M 65 169" clip-rule="nonzero"/></clipPath></defs><rect width="450" height="450" x="-37.5" y="-37.5" fill="#fff" fill-opacity="1"/><rect width="450" height="450" x="-37.5" y="-37.5" fill="#fff" fill-opacity="1"/><rect width="450" height="450" x="-37.5" y="-37.5" fill="#fff" fill-opacity="1"/><path fill="#5271ff" fill-opacity="1" fill-rule="nonzero" d="M 230.710938 236.339844 C 229.226562 236.34375 227.792969 236.058594 226.421875 235.492188 C 225.046875 234.925781 223.835938 234.117188 222.785156 233.066406 L 159.519531 169.894531 C 159 169.371094 158.535156 168.808594 158.128906 168.195312 C 157.71875 167.585938 157.375 166.9375 157.09375 166.261719 C 156.8125 165.582031 156.601562 164.882812 156.457031 164.160156 C 156.3125 163.4375 156.242188 162.710938 156.242188 161.976562 C 156.242188 161.242188 156.3125 160.515625 156.457031 159.792969 C 156.601562 159.074219 156.8125 158.371094 157.09375 157.695312 C 157.375 157.015625 157.71875 156.371094 158.128906 155.757812 C 158.535156 155.148438 159 154.582031 159.519531 154.058594 L 196.421875 117.214844 C 196.945312 116.695312 197.511719 116.230469 198.121094 115.824219 C 198.734375 115.414062 199.382812 115.070312 200.0625 114.789062 C 200.742188 114.507812 201.441406 114.296875 202.164062 114.152344 C 202.886719 114.011719 203.613281 113.941406 204.351562 113.941406 C 205.085938 113.941406 205.816406 114.011719 206.539062 114.152344 C 207.257812 114.296875 207.960938 114.507812 208.640625 114.789062 C 209.320312 115.070312 209.96875 115.414062 210.578125 115.824219 C 211.191406 116.230469 211.757812 116.695312 212.277344 117.214844 L 275.542969 180.375 C 276.0625 180.894531 276.527344 181.460938 276.933594 182.070312 C 277.34375 182.683594 277.6875 183.328125 277.96875 184.007812 C 278.25 184.6875 278.464844 185.386719 278.605469 186.105469 C 278.75 186.828125 278.820312 187.554688 278.820312 188.289062 C 278.820312 189.023438 278.75 189.753906 278.605469 190.472656 C 278.464844 191.195312 278.25 191.894531 277.96875 192.574219 C 277.6875 193.253906 277.34375 193.898438 276.933594 194.507812 C 276.527344 195.121094 276.0625 195.6875 275.542969 196.207031 L 238.640625 233.058594 C 237.589844 234.109375 236.378906 234.917969 235.003906 235.488281 C 233.628906 236.058594 232.199219 236.339844 230.710938 236.339844 Z M 228.082031 227.761719 C 228.429688 228.109375 228.832031 228.375 229.285156 228.5625 C 229.738281 228.75 230.210938 228.84375 230.699219 228.84375 C 231.191406 228.84375 231.664062 228.75 232.117188 228.5625 C 232.570312 228.375 232.972656 228.109375 233.320312 227.761719 L 270.222656 190.910156 C 270.566406 190.566406 270.835938 190.164062 271.023438 189.710938 C 271.210938 189.257812 271.304688 188.789062 271.304688 188.296875 C 271.304688 187.808594 271.210938 187.335938 271.023438 186.882812 C 270.835938 186.429688 270.566406 186.03125 270.222656 185.683594 L 206.964844 122.515625 C 206.617188 122.167969 206.21875 121.902344 205.765625 121.714844 C 205.3125 121.527344 204.839844 121.433594 204.347656 121.433594 C 203.859375 121.433594 203.386719 121.527344 202.933594 121.714844 C 202.480469 121.902344 202.082031 122.167969 201.734375 122.515625 L 164.832031 159.375 C 164.484375 159.722656 164.214844 160.121094 164.027344 160.574219 C 163.839844 161.027344 163.746094 161.496094 163.746094 161.988281 C 163.746094 162.476562 163.839844 162.949219 164.027344 163.402344 C 164.214844 163.855469 164.484375 164.253906 164.832031 164.601562 Z M 228.082031 227.761719"/><path fill="#5271ff" fill-opacity="1" fill-rule="nonzero" d="M 274.601562 191.652344 L 211.8125 184.125 C 211.394531 184.074219 210.996094 183.957031 210.621094 183.773438 C 210.242188 183.589844 209.902344 183.351562 209.605469 183.054688 C 209.308594 182.757812 209.066406 182.421875 208.882812 182.042969 C 208.699219 181.664062 208.582031 181.265625 208.53125 180.851562 L 200.992188 118.152344 L 208.449219 117.257812 L 215.636719 177.027344 L 275.5 184.203125 Z M 274.601562 191.652344"/><path fill="#5271ff" fill-opacity="1" fill-rule="nonzero" d="M 159.707031 157.875 L 208.53125 157.875 L 208.53125 165.375 L 159.707031 165.375 Z M 159.707031 157.875"/><path fill="#5271ff" fill-opacity="1" fill-rule="nonzero" d="M 227.308594 184.125 L 234.820312 184.125 L 234.820312 232.875 L 227.308594 232.875 Z M 227.308594 184.125"/><path fill="#5271ff" fill-opacity="1" fill-rule="nonzero" d="M 277.886719 266.601562 C 275.929688 266.570312 274.058594 266.15625 272.269531 265.363281 C 270.484375 264.566406 268.925781 263.449219 267.597656 262.015625 C 252.417969 246.863281 260.207031 234.242188 264.863281 226.703125 C 267.425781 222.542969 268.375 220.679688 267.597656 219.902344 C 261.875 214.191406 251.195312 220.414062 251.070312 220.472656 L 247.214844 214.039062 C 247.855469 213.664062 263.027344 204.75 272.890625 214.601562 C 278.011719 219.691406 274.253906 225.75 271.25 230.625 C 266.664062 238.058594 261.921875 245.742188 272.902344 256.703125 C 273.230469 257.074219 273.597656 257.410156 273.996094 257.703125 C 274.398438 258 274.824219 258.25 275.277344 258.453125 C 275.730469 258.65625 276.203125 258.8125 276.6875 258.914062 C 277.175781 259.019531 277.667969 259.070312 278.164062 259.070312 C 278.664062 259.070312 279.15625 259.015625 279.640625 258.910156 C 280.128906 258.804688 280.597656 258.648438 281.050781 258.441406 C 281.503906 258.238281 281.929688 257.984375 282.328125 257.6875 C 282.726562 257.390625 283.089844 257.058594 283.417969 256.683594 C 302.691406 237.4375 300.554688 215.96875 293.933594 209.363281 C 289.117188 204.550781 273.859375 204.234375 265.371094 205.175781 L 264.542969 197.722656 C 267.171875 197.441406 290.320312 195.144531 299.246094 204.058594 C 308.949219 213.75 310.777344 239.960938 288.703125 262.003906 C 287.261719 263.433594 285.605469 264.546875 283.738281 265.339844 C 281.867188 266.132812 279.917969 266.554688 277.886719 266.601562 Z M 277.886719 266.601562"/><path fill="#5271ff" fill-opacity="1" fill-rule="nonzero" d="M 273.878906 260.277344 L 266.59375 258.457031 C 266.820312 257.558594 272.246094 236.265625 283.394531 225.128906 L 288.710938 230.433594 C 279.027344 240.117188 273.941406 260.078125 273.878906 260.277344 Z M 273.878906 260.277344"/><path fill="#5271ff" fill-opacity="1" fill-rule="nonzero" d="M 178.570312 145.5 L 172.136719 141.640625 C 172.191406 141.542969 178.417969 130.878906 172.699219 125.164062 C 171.914062 124.386719 170.070312 125.332031 165.890625 127.898438 C 158.335938 132.539062 145.703125 140.320312 130.523438 125.164062 C 129.515625 124.257812 128.660156 123.230469 127.957031 122.074219 C 127.253906 120.921875 126.730469 119.691406 126.386719 118.382812 C 126.042969 117.078125 125.894531 115.75 125.941406 114.398438 C 125.988281 113.046875 126.226562 111.730469 126.65625 110.453125 C 127.484375 108.039062 128.773438 105.902344 130.53125 104.050781 C 132.722656 101.699219 135.101562 99.554688 137.664062 97.617188 C 140.230469 95.679688 142.945312 93.980469 145.804688 92.515625 C 148.667969 91.046875 151.636719 89.839844 154.707031 88.890625 C 157.78125 87.9375 160.910156 87.257812 164.101562 86.851562 C 174.035156 85.820312 183.414062 88.382812 188.5625 93.523438 C 197.488281 102.4375 195.203125 125.566406 194.910156 128.175781 L 187.441406 127.34375 C 188.378906 118.875 188.066406 103.636719 183.25 98.84375 C 181.964844 97.847656 180.585938 96.996094 179.117188 96.289062 C 177.648438 95.582031 176.125 95.035156 174.542969 94.648438 C 172.960938 94.261719 171.351562 94.039062 169.722656 93.988281 C 168.09375 93.9375 166.480469 94.058594 164.875 94.34375 C 162.109375 94.710938 159.398438 95.3125 156.738281 96.148438 C 154.082031 96.988281 151.511719 98.046875 149.039062 99.328125 C 146.5625 100.609375 144.21875 102.097656 142 103.785156 C 139.785156 105.476562 137.730469 107.34375 135.839844 109.390625 C 135.464844 109.71875 135.128906 110.082031 134.832031 110.480469 C 134.535156 110.878906 134.285156 111.304688 134.078125 111.757812 C 133.875 112.210938 133.71875 112.679688 133.613281 113.167969 C 133.507812 113.652344 133.457031 114.144531 133.457031 114.640625 C 133.457031 115.136719 133.507812 115.628906 133.613281 116.113281 C 133.71875 116.601562 133.875 117.070312 134.078125 117.523438 C 134.285156 117.976562 134.535156 118.402344 134.832031 118.800781 C 135.128906 119.199219 135.464844 119.5625 135.839844 119.890625 C 146.820312 130.855469 154.515625 126.121094 161.953125 121.542969 C 166.835938 118.542969 172.910156 114.792969 178.015625 119.890625 C 187.875 129.695312 178.960938 144.839844 178.570312 145.5 Z M 178.570312 145.5"/><path fill="#5271ff" fill-opacity="1" fill-rule="nonzero" d="M 134.089844 126.128906 L 132.265625 118.875 C 132.46875 118.820312 152.480469 113.726562 162.152344 104.066406 L 167.464844 109.371094 C 156.328125 120.492188 134.992188 125.910156 134.089844 126.128906 Z M 134.089844 126.128906"/><g clip-path="url(#7aa9572435)"><path fill="#5271ff" fill-opacity="1" fill-rule="nonzero" d="M 113.003906 289.125 C 111.535156 289.128906 110.125 288.851562 108.773438 288.289062 C 107.417969 287.730469 106.222656 286.933594 105.1875 285.898438 L 69.054688 249.816406 C 68.539062 249.304688 68.082031 248.746094 67.679688 248.144531 C 67.277344 247.539062 66.933594 246.902344 66.65625 246.234375 C 66.378906 245.566406 66.167969 244.875 66.027344 244.164062 C 65.886719 243.453125 65.816406 242.734375 65.816406 242.007812 C 65.816406 241.285156 65.886719 240.566406 66.027344 239.855469 C 66.167969 239.144531 66.378906 238.453125 66.65625 237.785156 C 66.933594 237.113281 67.277344 236.476562 67.679688 235.875 C 68.082031 235.273438 68.539062 234.714844 69.054688 234.203125 L 130.992188 172.355469 C 131.503906 171.84375 132.066406 171.390625 132.667969 170.988281 C 133.273438 170.585938 133.910156 170.246094 134.578125 169.96875 C 135.25 169.691406 135.941406 169.484375 136.652344 169.34375 C 137.363281 169.203125 138.082031 169.132812 138.808594 169.132812 C 139.535156 169.132812 140.253906 169.203125 140.964844 169.34375 C 141.675781 169.484375 142.367188 169.691406 143.039062 169.96875 C 143.707031 170.246094 144.347656 170.585938 144.949219 170.988281 C 145.554688 171.390625 146.113281 171.84375 146.625 172.355469 L 182.757812 208.433594 C 183.273438 208.945312 183.730469 209.503906 184.132812 210.105469 C 184.539062 210.707031 184.878906 211.34375 185.15625 212.015625 C 185.433594 212.683594 185.644531 213.375 185.785156 214.085938 C 185.925781 214.796875 185.996094 215.515625 185.996094 216.238281 C 185.996094 216.964844 185.925781 217.683594 185.785156 218.394531 C 185.644531 219.105469 185.433594 219.792969 185.15625 220.464844 C 184.878906 221.132812 184.539062 221.769531 184.132812 222.375 C 183.730469 222.976562 183.273438 223.535156 182.757812 224.046875 L 120.820312 285.890625 C 119.785156 286.925781 118.589844 287.726562 117.234375 288.285156 C 115.878906 288.847656 114.46875 289.125 113.003906 289.125 Z M 138.8125 176.625 C 137.832031 176.621094 137 176.964844 136.304688 177.65625 L 74.363281 239.507812 C 74.03125 239.839844 73.777344 240.222656 73.59375 240.65625 C 73.414062 241.089844 73.324219 241.542969 73.324219 242.011719 C 73.324219 242.480469 73.414062 242.933594 73.59375 243.367188 C 73.777344 243.800781 74.03125 244.183594 74.363281 244.515625 L 110.492188 280.589844 C 110.828125 280.917969 111.210938 281.175781 111.644531 281.351562 C 112.078125 281.53125 112.527344 281.621094 113 281.621094 C 113.46875 281.621094 113.917969 281.53125 114.351562 281.351562 C 114.789062 281.175781 115.171875 280.917969 115.503906 280.589844 L 177.449219 218.742188 C 177.78125 218.410156 178.039062 218.027344 178.21875 217.59375 C 178.398438 217.160156 178.488281 216.707031 178.488281 216.238281 C 178.488281 215.769531 178.398438 215.316406 178.21875 214.882812 C 178.039062 214.449219 177.78125 214.066406 177.449219 213.734375 L 141.320312 177.660156 C 140.625 176.96875 139.789062 176.621094 138.8125 176.625 Z M 138.8125 176.625"/></g><path fill="#5271ff" fill-opacity="1" fill-rule="nonzero" d="M 70.042969 245.371094 L 69.148438 237.925781 L 127.691406 230.90625 L 134.722656 172.449219 L 142.179688 173.34375 L 134.796875 234.722656 C 134.746094 235.140625 134.628906 235.539062 134.445312 235.914062 C 134.261719 236.292969 134.023438 236.628906 133.722656 236.925781 C 133.425781 237.226562 133.089844 237.464844 132.710938 237.648438 C 132.332031 237.832031 131.933594 237.949219 131.519531 238 Z M 70.042969 245.371094"/><path fill="#5271ff" fill-opacity="1" fill-rule="nonzero" d="M 110.882812 236.625 L 118.394531 236.625 L 118.394531 285.375 L 110.882812 285.375 Z M 110.882812 236.625"/><path fill="#5271ff" fill-opacity="1" fill-rule="nonzero" d="M 133.417969 214.125 L 182.242188 214.125 L 182.242188 221.625 L 133.417969 221.625 Z M 133.417969 214.125"/><path fill="#5271ff" fill-opacity="1" fill-rule="nonzero" d="M 155.953125 259.125 L 204.777344 259.125 L 204.777344 266.625 L 155.953125 266.625 Z M 155.953125 259.125"/><path fill="#5271ff" fill-opacity="1" fill-rule="nonzero" d="M 212.285156 259.125 L 219.796875 259.125 L 219.796875 266.625 L 212.285156 266.625 Z M 212.285156 259.125"/><path fill="#5271ff" fill-opacity="1" fill-rule="nonzero" d="M 189.753906 274.125 L 246.085938 274.125 L 246.085938 281.625 L 189.753906 281.625 Z M 189.753906 274.125"/><path fill="#5271ff" fill-opacity="1" fill-rule="nonzero" d="M 253.597656 274.125 L 261.109375 274.125 L 261.109375 281.625 L 253.597656 281.625 Z M 253.597656 274.125"/><path fill="#5271ff" fill-opacity="1" fill-rule="nonzero" d="M 182.242188 244.125 L 231.066406 244.125 L 231.066406 251.625 L 182.242188 251.625 Z M 182.242188 244.125"/><path fill="#5271ff" fill-opacity="1" fill-rule="nonzero" d="M 238.578125 244.125 L 246.085938 244.125 L 246.085938 251.625 L 238.578125 251.625 Z M 238.578125 244.125"/></svg>