<svg width="1440" height="1024" viewBox="0 0 1440 1024" fill="none" xmlns="http://www.w3.org/2000/svg">
<g clip-path="url(#clip0_519_18)">
<rect width="1440" height="1024" fill="white"/>
<g clip-path="url(#clip1_519_18)">
<path d="M164.898 1835.26L1940.95 809.854L1090.85 -662.563L-685.202 362.838L164.898 1835.26Z" fill="#0E2A47"/>
<path d="M1847.97 648.808C1712.5 578.243 1304.76 200.144 1170.65 295.98C1036.53 391.816 1279.63 976.937 1177.4 1127.99C1075.16 1279.04 831.11 1020.4 659.472 1051.24C487.834 1082.08 500.805 1268.61 319.205 1282.2C137.605 1295.79 -134.982 1151.78 -248.529 1119.18L-685.202 362.838L1090.85 -662.563L1847.97 648.808Z" fill="#184A7E"/>
<path d="M1401.33 -124.786C1251.71 -110.491 905.988 -162.424 653.242 -53.312C400.497 55.8004 390.681 312.239 137.603 420.776C-115.475 529.313 -462.197 475.654 -612.147 489.374L-685.202 362.838L1090.85 -662.563L1401.33 -124.786Z" fill="#2264AB"/>
</g>
</g>
<defs>
<clipPath id="clip0_519_18">
<rect width="1440" height="1024" fill="white"/>
</clipPath>
<clipPath id="clip1_519_18">
<rect width="2050.8" height="1700.2" fill="white" transform="translate(1940.95 809.854) rotate(150)"/>
</clipPath>
</defs>
</svg>
