<svg width="644" height="428" viewBox="0 0 644 428" fill="none" xmlns="http://www.w3.org/2000/svg">
<g clip-path="url(#clip0_552_3)">
<path d="M326.245 120.294C320.503 110.788 313.699 100.64 303.043 97.5358C290.702 93.9415 278.025 101.082 267.273 108.128C235.115 129.2 204.148 152.037 174.511 176.532L174.543 176.901C197.617 175.309 220.69 173.716 243.763 172.124C260.434 170.973 277.677 169.664 292.409 161.771C298 158.776 303.449 154.775 309.784 154.496C317.654 154.15 324.517 159.651 329.91 165.399C361.811 199.398 371.042 251.392 406.832 281.263C384.264 225.559 357.317 171.733 326.245 120.294Z" fill="#F2F2F2"/>
<path d="M522.336 408.672C518.808 404.213 517.367 403.169 513.887 398.67C485.553 361.992 458.922 324.076 433.993 284.921C417.06 258.329 400.966 231.225 385.713 203.612C378.451 190.484 371.388 177.253 364.524 163.919C359.198 153.58 353.991 143.179 348.902 132.716C347.447 129.728 346.033 126.726 344.626 123.717C341.311 116.641 338.057 109.531 334.564 102.552C330.583 94.5965 325.737 86.2567 318.427 80.9121C315.1 78.3799 311.122 76.8478 306.958 76.4949C301.007 76.1102 295.516 78.5695 290.354 81.2555C252.59 100.965 217.235 125.675 185.256 153.793C153.196 181.973 124.539 213.811 99.8706 248.656C99.1159 249.735 97.3312 248.704 98.093 247.619C101.093 243.373 104.152 239.174 107.27 235.02C146.045 183.405 193.59 139.019 247.73 103.891C256.839 97.9832 266.119 92.3524 275.57 86.9986C280.333 84.2988 285.117 81.6333 289.984 79.1328C294.754 76.6803 299.819 74.4751 305.269 74.3927C323.815 74.1042 333.418 95.1254 340.014 109.27C342.087 113.722 344.185 118.159 346.308 122.584C354.332 139.38 362.664 156.023 371.306 172.512C376.639 182.693 382.089 192.815 387.655 202.877C404.979 234.209 423.393 264.908 442.895 294.972C468.73 334.795 494.36 369.975 523.791 407.215C524.601 408.246 523.153 409.716 522.336 408.672Z" fill="#E4E4E4"/>
<path d="M183.423 143.412C182.346 142.21 181.275 141.008 180.191 139.806C171.638 130.339 162.462 120.983 150.718 115.556C145.118 112.886 139.005 111.468 132.803 111.4C126.392 111.42 120.126 113.103 114.202 115.46C111.402 116.579 108.663 117.85 105.966 119.204C102.884 120.756 99.8569 122.412 96.8439 124.081C91.188 127.214 85.6055 130.484 80.0964 133.891C69.1348 140.671 58.5165 147.969 48.2415 155.785C42.915 159.838 37.6985 164.024 32.5919 168.343C27.8422 172.354 23.1886 176.474 18.6311 180.701C17.6564 181.601 16.2012 180.145 17.1758 179.245C18.377 178.125 19.5919 177.012 20.8068 175.913C24.2387 172.808 27.7255 169.762 31.2674 166.776C37.726 161.322 44.3518 156.078 51.1448 151.045C61.7083 143.213 72.6354 135.913 83.9261 129.144C89.5683 125.764 95.2881 122.526 101.086 119.43C102.836 118.496 104.607 117.582 106.398 116.717C110.463 114.665 114.686 112.944 119.028 111.571C125.177 109.58 131.683 108.941 138.102 109.696C144.3 110.598 150.271 112.666 155.701 115.789C167.232 122.24 176.175 132.215 184.879 141.949C185.757 142.938 184.309 144.402 183.423 143.412Z" fill="#E4E4E4"/>
<path d="M419.691 241.51L447.322 231.395L461.041 226.373C465.509 224.737 469.967 222.875 474.586 221.704C478.6 220.556 482.861 220.611 486.845 221.86C490.397 223.176 493.649 225.194 496.407 227.793C499.224 230.39 501.846 233.191 504.25 236.176C507.237 239.768 510.179 243.399 513.135 247.017C525.335 261.95 537.455 276.947 549.496 292.01C561.536 307.072 573.495 322.198 585.374 337.389C597.282 352.616 609.108 367.907 620.853 383.262C622.291 385.143 623.729 387.025 625.165 388.908C625.959 389.948 627.748 388.922 626.943 387.867C615.112 372.358 603.199 356.913 591.203 341.53C579.178 326.112 567.069 310.758 554.878 295.47C542.686 280.182 530.413 264.961 518.056 249.805C514.978 246.03 511.895 242.258 508.806 238.491C506.201 235.313 503.625 232.101 500.768 229.143C495.523 223.714 488.97 218.916 481.126 218.786C476.514 218.709 472.05 220.174 467.765 221.725C463.146 223.398 458.538 225.102 453.924 226.791L426.1 236.976L419.144 239.523C417.909 239.975 418.442 241.967 419.691 241.51L419.691 241.51Z" fill="#E4E4E4"/>
<path d="M147.081 127.468C133.04 120.245 115.058 121.659 102.154 130.683C126.766 134.933 151.109 140.619 175.058 147.713C165.113 141.88 157.334 132.741 147.081 127.468Z" fill="#F2F2F2"/>
<path d="M102.016 130.658L99.313 132.857C100.227 132.088 101.178 131.366 102.154 130.683C102.108 130.675 102.062 130.666 102.016 130.658Z" fill="#F2F2F2"/>
<path d="M495.366 241.611C492.646 238.297 489.706 234.828 485.637 233.482L481.839 233.632C510.753 284.768 549.803 329.45 596.594 364.936C562.851 323.828 529.109 282.72 495.366 241.611Z" fill="#F2F2F2"/>
<path d="M259.17 214.275C260.928 220.666 264.888 226.23 270.349 229.98C272.461 231.419 274.959 232.8 275.682 235.252C276.062 236.815 275.827 238.465 275.027 239.86C274.229 241.238 273.257 242.508 272.136 243.638L272.034 244.022C266.794 240.914 261.809 236.983 258.915 231.619C256.02 226.255 255.616 219.225 259.17 214.275" fill="#F2F2F2"/>
<path d="M433.622 366.396C435.38 372.788 439.34 378.351 444.802 382.102C446.913 383.541 449.411 384.921 450.134 387.374C450.514 388.937 450.28 390.587 449.48 391.982C448.681 393.36 447.709 394.629 446.589 395.76L446.486 396.144C441.246 393.036 436.261 389.105 433.367 383.741C430.472 378.377 430.068 371.347 433.622 366.396" fill="#F2F2F2"/>
<path d="M85.4666 355.905C87.2243 362.297 91.1843 367.86 96.6459 371.611C98.7574 373.05 101.256 374.43 101.978 376.882C102.358 378.446 102.124 380.095 101.324 381.491C100.525 382.869 99.5537 384.138 98.4328 385.269L98.3305 385.653C93.0906 382.545 88.1056 378.613 85.2112 373.25C82.3167 367.886 81.9126 360.856 85.4666 355.905" fill="#F2F2F2"/>
<path d="M486.107 76.4355C507.196 76.4355 524.292 59.3249 524.292 38.2178C524.292 17.1107 507.196 0 486.107 0C465.018 0 447.922 17.1107 447.922 38.2178C447.922 59.3249 465.018 76.4355 486.107 76.4355Z" fill="#6C63FF"/>
<path d="M555.016 8.89524C536.51 6.39164 515.382 16.4029 510.586 34.4663C509.377 31.2546 507.18 28.5107 504.311 26.6309C501.442 24.7512 498.05 23.8329 494.626 24.0088C491.201 24.1847 487.921 25.4456 485.259 27.6094C482.598 29.7732 480.692 32.7279 479.818 36.0465L481.937 37.5652C521.595 46.1487 562.647 45.9629 602.226 37.0209C589.353 23.4806 573.522 11.3988 555.016 8.89524Z" fill="#F0F0F0"/>
<path d="M475.652 59.8523C457.146 57.3487 436.018 67.3599 431.222 85.4234C430.013 82.2117 427.815 79.4678 424.946 77.588C422.078 75.7082 418.686 74.7899 415.261 74.9658C411.837 75.1417 408.557 76.4026 405.895 78.5664C403.233 80.7302 401.328 83.6849 400.454 87.0035L402.573 88.5223C442.231 97.1057 483.283 96.92 522.862 87.9779C509.989 74.4377 494.158 62.3558 475.652 59.8523Z" fill="#F0F0F0"/>
<path d="M637.172 69.4876C637.095 69.4877 637.019 69.4759 636.946 69.4524C438.978 6.79167 264.498 14.9857 152.986 32.8937C137.811 35.3299 122.595 38.1436 107.761 41.2575C103.973 42.0515 100.044 42.9026 96.0829 43.7888C91.3519 44.8433 86.6837 45.9293 82.2074 47.0153C80.2742 47.4734 78.3788 47.9352 76.5211 48.4006C73.7072 49.0958 70.8519 49.8203 67.7912 50.6165C64.3712 51.4991 60.8962 52.4248 57.4608 53.3681C57.4483 53.3725 57.4354 53.3762 57.4224 53.3791L57.4228 53.3798C53.5425 54.4402 49.6826 55.5313 45.9499 56.621C43.9297 57.205 41.9789 57.7809 40.1104 58.3495C39.9017 58.4073 39.7167 58.4629 39.5291 58.52L39.1277 58.6422C38.8952 58.7132 38.6656 58.7827 38.436 58.8486L38.4214 58.853L38.4218 58.8537L37.8142 59.0426C37.0896 59.2621 36.3825 59.4765 35.6872 59.6902C17.3098 65.3602 7.20719 69.3939 7.10738 69.4335C7.01612 69.4701 6.91854 69.4883 6.82022 69.4872C6.72191 69.4861 6.62477 69.4656 6.53437 69.4269C6.44397 69.3882 6.36206 69.332 6.29333 69.2617C6.22461 69.1913 6.17041 69.108 6.13382 69.0167C6.09724 68.9254 6.079 68.8277 6.08013 68.7293C6.08125 68.6309 6.10174 68.5337 6.1404 68.4432C6.17907 68.3527 6.23516 68.2707 6.30548 68.2019C6.3758 68.1332 6.45896 68.0789 6.55023 68.0423C6.65077 68.0028 16.8028 63.9486 35.247 58.2573C35.9449 58.0429 36.6538 57.8285 37.3806 57.6082L37.945 57.4326C37.9644 57.4253 37.9838 57.4194 38.0035 57.4136C38.232 57.3484 38.4602 57.2789 38.6919 57.2087L39.0941 57.0865C39.2944 57.0257 39.4918 56.9657 39.694 56.9101C41.5497 56.3451 43.5071 55.7677 45.5324 55.1816C49.2666 54.0912 53.1301 53.0001 57.0134 51.9382C57.0254 51.9338 57.0378 51.9309 57.0499 51.9272V51.9265C60.4974 50.9803 63.9851 50.0509 67.4161 49.1654C70.4816 48.3685 73.3423 47.6425 76.161 46.9458C78.0266 46.4811 79.9257 46.0184 81.8583 45.5576C86.3397 44.4701 91.0174 43.3827 95.7568 42.3259C99.7246 41.439 103.66 40.5857 107.453 39.791C122.311 36.672 137.55 33.8538 152.749 31.414C264.42 13.4804 439.151 5.27316 637.397 68.0239C637.567 68.0778 637.713 68.1909 637.807 68.3429C637.902 68.4948 637.939 68.6756 637.911 68.8524C637.884 69.0292 637.795 69.1905 637.659 69.307C637.523 69.4235 637.35 69.4875 637.172 69.4876Z" fill="#CCCCCC"/>
<path d="M196.906 314.615C196.647 313.856 196.21 313.17 195.633 312.614C195.42 312.416 195.189 312.238 194.944 312.082C192.99 310.778 190.07 310.486 188.213 312.082C188.026 312.244 187.853 312.422 187.697 312.614C187.143 313.296 186.574 313.963 185.99 314.615C185.031 315.709 184.05 316.765 183.025 317.792C182.733 318.077 182.441 318.369 182.141 318.654C181.969 318.826 181.797 318.991 181.624 319.156C180.966 319.785 180.292 320.392 179.61 320.992C179.251 321.314 178.892 321.629 178.525 321.936C177.978 322.393 177.432 322.85 176.878 323.292C176.825 323.33 176.773 323.367 176.72 323.412C176.705 323.42 176.698 323.435 176.683 323.442C176.675 323.442 176.668 323.442 176.66 323.457C176.64 323.465 176.622 323.478 176.608 323.495C176.443 323.607 176.331 323.682 176.249 323.749C176.279 323.734 176.309 323.712 176.339 323.697C176.204 323.802 176.061 323.907 175.927 324.012C174.616 324.978 173.276 325.908 171.906 326.777C168.516 328.948 164.955 330.841 161.259 332.435C161.012 332.532 160.758 332.637 160.503 332.734C150.825 336.703 140.328 338.251 129.918 337.246C128.854 337.163 127.791 337.051 126.728 336.908C125.5 336.728 124.28 336.511 123.067 336.264C118.449 335.342 113.931 333.977 109.575 332.187C104.126 329.69 98.9432 326.647 94.1063 323.105C93.3575 322.573 92.6013 322.041 91.8451 321.524C92.7062 319.411 93.5522 317.297 94.3758 315.169C94.7876 314.143 95.1844 313.116 95.5738 312.082C98.6361 304.116 101.511 296.075 104.266 288.005C107.052 279.829 109.68 271.606 112.15 263.335C112.405 262.496 112.652 261.657 112.892 260.818C114.187 256.449 115.43 252.07 116.62 247.681C116.733 247.254 116.852 246.834 116.957 246.407C117.302 245.148 117.639 243.889 117.968 242.63C118.717 239.79 117.025 236.396 114.045 235.714C112.61 235.346 111.088 235.549 109.801 236.282C108.513 237.014 107.56 238.218 107.142 239.64C106.82 240.854 106.498 242.061 106.168 243.275C104.588 249.142 102.926 254.99 101.182 260.818C100.927 261.657 100.673 262.496 100.418 263.335C96.5696 276.03 92.3443 288.597 87.7421 301.036C87.1881 302.542 86.6265 304.044 86.0575 305.54C85.7805 306.274 85.5034 307.009 85.2189 307.743C84.6724 309.189 84.1108 310.635 83.5493 312.082C83.2273 312.929 82.8979 313.775 82.5685 314.615C82.3513 315.147 82.1417 315.679 81.9321 316.203C79.7973 315.436 77.5856 314.903 75.3358 314.615L74.9764 314.57C73.2322 314.36 71.4682 314.375 69.7279 314.615C67.1231 314.919 64.6169 315.792 62.3864 317.172C60.156 318.553 58.2557 320.407 56.8199 322.603C53.2485 328.231 53.2934 336.279 58.3024 341.06C63.4611 345.983 71.2702 345.946 77.3424 342.866C80.5602 341.123 83.2735 338.578 85.2189 335.477C85.9643 334.353 86.6491 333.19 87.2705 331.992C87.4277 332.097 87.5849 332.202 87.7421 332.315C88.3411 332.734 88.9401 333.161 89.5316 333.581C92.978 336.08 96.6098 338.312 100.396 340.258C108.536 344.308 117.298 346.96 126.316 348.104C126.519 348.126 126.713 348.156 126.915 348.179C127.911 348.306 128.914 348.404 129.918 348.486C144.31 349.572 158.719 346.624 171.532 339.973C172.617 339.411 173.693 338.822 174.759 338.205C176.413 337.246 178.031 336.226 179.61 335.147C180.471 334.563 181.31 333.971 182.141 333.349C185.773 330.672 189.158 327.675 192.256 324.394C193.432 323.157 194.557 321.881 195.633 320.565C196.65 319.488 197.237 318.074 197.28 316.593C197.274 315.916 197.148 315.246 196.906 314.615ZM72.9249 332.465C73.0822 332.352 73.2394 332.232 73.3891 332.112C73.3442 332.225 73.1271 332.352 72.9249 332.465H72.9249ZM75.3283 330.044C75.1561 330.239 74.9989 330.434 74.8267 330.629C74.3028 331.215 73.74 331.766 73.142 332.277C73.0597 332.352 72.9698 332.427 72.88 332.495C72.879 332.495 72.878 332.495 72.8771 332.495C72.8762 332.495 72.8754 332.496 72.8747 332.497C72.874 332.497 72.8734 332.498 72.873 332.499C72.8727 332.5 72.8725 332.501 72.8725 332.502C72.7643 332.55 72.6593 332.605 72.558 332.667C72.2361 332.862 71.9066 333.042 71.5697 333.206C70.91 333.45 70.2314 333.638 69.5407 333.768C69.01 333.807 68.4773 333.812 67.9459 333.783H67.9309C67.5642 333.702 67.2019 333.602 66.8453 333.484C66.6656 333.394 66.4934 333.289 66.3212 333.184C66.2538 333.124 66.1939 333.064 66.1565 333.027C66.0833 332.96 66.0157 332.887 65.9544 332.809C65.9544 332.808 65.9542 332.807 65.9538 332.806C65.9534 332.805 65.9529 332.805 65.9522 332.804C65.9515 332.803 65.9507 332.803 65.9497 332.802C65.9488 332.802 65.9479 332.802 65.9469 332.802C65.8645 332.652 65.7746 332.502 65.6923 332.352C65.688 332.348 65.6854 332.343 65.6848 332.337C65.6249 332.15 65.5725 331.955 65.5276 331.76C65.5113 331.418 65.5138 331.075 65.5351 330.734C65.6355 330.255 65.7707 329.784 65.9394 329.325C66.091 328.999 66.2635 328.684 66.456 328.381C66.471 328.351 66.5458 328.231 66.6282 328.096C66.6357 328.088 66.6357 328.088 66.6357 328.081C66.748 327.953 66.8603 327.819 66.9801 327.699C67.1823 327.474 67.3994 327.279 67.6165 327.077C68.0388 326.8 68.4762 326.547 68.9268 326.32C69.6415 326.066 70.375 325.868 71.1205 325.728C72.2199 325.64 73.3248 325.65 74.4224 325.758C75.462 325.938 76.4877 326.191 77.4922 326.515C76.8834 327.697 76.1903 328.834 75.4182 329.917C75.3882 329.962 75.3583 330.007 75.3283 330.044ZM67.0025 327.579C66.9366 327.685 66.8587 327.783 66.7704 327.871C66.8298 327.76 66.9084 327.662 67.0025 327.579Z" fill="#3F3D56"/>
<path d="M174.399 238.082C174.332 240.435 174.264 242.788 174.197 245.141C174.055 250.364 173.907 255.589 173.755 260.818C173.598 266.7 173.433 272.58 173.261 278.458C173.179 281.493 173.094 284.528 173.006 287.562C172.774 295.738 172.545 303.911 172.318 312.082C172.295 312.929 172.265 313.768 172.243 314.615C172.13 318.669 172.018 322.723 171.906 326.777C171.778 331.176 171.654 335.574 171.531 339.973C171.442 343.27 171.349 346.57 171.254 349.872C170.581 373.8 169.907 397.727 169.233 421.654C169.204 423.136 168.604 424.549 167.557 425.597C166.51 426.645 165.098 427.246 163.617 427.275C162.132 427.263 160.71 426.667 159.66 425.615C158.609 424.564 158.014 423.141 158.002 421.654C158.376 408.196 158.756 394.737 159.14 381.278C159.477 369.109 159.819 356.939 160.166 344.769C160.278 340.76 160.39 336.748 160.503 332.734C160.675 326.694 160.845 320.655 161.012 314.615C161.034 313.768 161.064 312.929 161.087 312.082C161.102 311.34 161.124 310.606 161.147 309.864C161.476 298.136 161.805 286.406 162.135 274.673C162.27 270.057 162.399 265.439 162.524 260.818C162.674 255.549 162.824 250.284 162.973 245.021C163.041 242.705 163.101 240.397 163.168 238.082C163.197 236.6 163.797 235.187 164.844 234.139C165.891 233.091 167.303 232.49 168.784 232.461C170.269 232.473 171.691 233.069 172.741 234.121C173.792 235.172 174.387 236.595 174.399 238.082Z" fill="#3F3D56"/>
<path d="M482.444 239.641C476.556 261.957 469.518 283.953 461.36 305.542C459.108 311.496 456.805 317.439 454.343 323.311L454.909 321.968C453.81 324.765 452.407 327.431 450.724 329.92C450.61 330.081 450.493 330.24 450.374 330.397C450.956 329.653 451.067 329.505 450.706 329.956C450.516 330.181 450.328 330.407 450.131 330.627C449.607 331.214 449.045 331.765 448.447 332.278C448.297 332.406 448.144 332.532 447.989 332.656L448.692 332.109C448.61 332.302 448.038 332.557 447.86 332.666C447.283 333.014 446.681 333.32 446.059 333.579L447.401 333.013C446.382 333.423 445.319 333.715 444.233 333.882L445.726 333.682C444.659 333.829 443.578 333.841 442.508 333.716L444.001 333.917C443.125 333.796 442.269 333.565 441.451 333.23L442.793 333.796C442.356 333.606 441.936 333.382 441.536 333.125C441.332 332.992 440.708 332.519 441.524 333.143C442.373 333.792 441.634 333.199 441.459 333.026C441.313 332.883 441.182 332.727 441.04 332.581C440.379 331.903 441.786 333.747 441.337 332.954C441.097 332.557 440.878 332.147 440.679 331.728L441.245 333.07C440.988 332.431 440.805 331.764 440.7 331.083L440.901 332.577C440.794 331.73 440.793 330.873 440.899 330.026L440.698 331.52C440.835 330.574 441.085 329.648 441.443 328.762L440.877 330.105C441.126 329.509 441.421 328.933 441.759 328.382C441.914 328.098 442.097 327.829 442.304 327.579C442.341 327.591 441.354 328.713 441.878 328.147C442.015 327.999 442.143 327.843 442.281 327.696C442.503 327.46 442.741 327.245 442.974 327.023C443.757 326.278 441.88 327.747 442.782 327.157C443.437 326.727 444.125 326.351 444.841 326.034L443.499 326.6C444.698 326.107 445.955 325.77 447.239 325.596L445.747 325.797C447.355 325.612 448.98 325.631 450.584 325.854L449.091 325.653C451.122 325.961 453.106 326.52 455 327.317L453.658 326.75C457.694 328.484 461.268 331.059 464.835 333.583C468.281 336.08 471.912 338.312 475.696 340.257C483.837 344.308 492.6 346.961 501.619 348.106C514.554 349.692 527.679 348.001 539.791 343.189C551.903 338.377 562.613 330.598 570.94 320.565C571.956 319.487 572.541 318.073 572.585 316.591C572.574 315.103 571.984 313.677 570.94 312.617C568.88 310.724 564.988 310.19 562.998 312.617C561.113 314.921 559.086 317.105 556.929 319.157C555.922 320.113 554.888 321.04 553.827 321.937C553.222 322.449 552.607 322.952 551.985 323.444C551.69 323.677 550.773 324.297 552.182 323.296C551.859 323.525 551.549 323.776 551.231 324.011C546.515 327.49 541.405 330.399 536.007 332.678L537.349 332.111C531.557 334.543 525.473 336.211 519.251 337.074L520.744 336.873C514.344 337.716 507.86 337.706 501.462 336.844L502.955 337.045C496.558 336.166 490.302 334.461 484.344 331.972L485.685 332.538C479.935 329.992 474.478 326.828 469.41 323.103C466.773 321.148 463.992 319.396 461.09 317.862C457.709 316.134 454.049 315.02 450.28 314.573C443.213 313.741 436.011 316.496 432.126 322.607C428.551 328.231 428.597 336.278 433.604 341.06C438.761 345.985 446.571 345.944 452.648 342.863C458.501 339.896 462.017 333.731 464.489 327.919C470.053 314.839 474.979 301.456 479.568 288.005C484.109 274.698 488.227 261.256 491.921 247.679C492.379 245.998 492.83 244.315 493.274 242.63C494.024 239.79 492.33 236.395 489.352 235.716C487.917 235.346 486.394 235.549 485.105 236.281C483.817 237.014 482.863 238.218 482.444 239.641L482.444 239.641Z" fill="#3F3D56"/>
<path d="M538.474 238.081L536.452 309.866L534.442 381.276L533.305 421.655C533.317 423.141 533.913 424.564 534.963 425.615C536.014 426.666 537.435 427.262 538.92 427.275C540.4 427.246 541.812 426.645 542.859 425.597C543.906 424.549 544.507 423.136 544.536 421.655L546.557 349.87L548.567 278.46L549.704 238.081C549.692 236.595 549.096 235.172 548.046 234.121C546.995 233.07 545.574 232.474 544.089 232.461C542.609 232.49 541.197 233.091 540.15 234.139C539.103 235.187 538.502 236.6 538.474 238.081Z" fill="#3F3D56"/>
<path opacity="0.2" d="M344.106 401.612H345.85V322.148H386.527V320.408H345.85V286.878H377.263C376.803 286.291 376.329 285.713 375.841 285.141H345.85V262.995C345.273 262.749 344.692 262.512 344.106 262.288V285.141H309.926V256.766C309.34 256.793 308.763 256.833 308.182 256.883V285.141H280.913V263.971C280.328 264.23 279.751 264.503 279.179 264.79V285.141H256.256V286.878H279.179V320.408H256.256V322.148H279.179V401.612H280.913V322.148C284.495 322.148 288.041 322.853 291.349 324.224C294.658 325.596 297.664 327.606 300.197 330.14C302.729 332.675 304.738 335.684 306.108 338.995C307.478 342.307 308.183 345.856 308.182 349.44V401.612H309.926V322.148H344.106V401.612ZM280.913 320.408V286.878H308.182V320.408H280.913ZM309.926 320.408V286.878H310.61C315.009 286.878 319.365 287.745 323.429 289.431C327.493 291.116 331.186 293.586 334.296 296.699C337.407 299.813 339.874 303.509 341.557 307.577C343.24 311.645 344.107 316.005 344.106 320.408H309.926Z" fill="black"/>
<path d="M333.458 377.786C331.263 387.587 326.004 396.433 318.446 403.04C317.892 403.52 317.338 403.984 316.761 404.441C315.361 404.569 313.971 404.699 312.591 404.831C311.446 404.936 310.315 405.048 309.192 405.153L308.99 405.176L308.847 403.947L308.278 398.971C306.071 395.364 304.703 391.306 304.275 387.098C303.847 382.89 304.371 378.639 305.808 374.662C307.784 369.326 311.363 364.612 314.882 359.936C319.741 353.477 324.466 347.092 324.638 339.216C327.029 342.279 329.017 345.636 330.553 349.206C329.104 349.888 327.801 350.848 326.719 352.031C326.412 352.368 326.105 352.84 326.315 353.245C326.495 353.589 326.944 353.672 327.333 353.717C328.269 353.814 329.213 353.911 330.149 354.009C330.897 354.091 331.646 354.166 332.395 354.249C333.301 357.224 333.915 360.281 334.229 363.376C334.734 368.19 334.473 373.054 333.458 377.786Z" fill="#3F3D56"/>
<path d="M358.315 358.145C353.898 361.36 351.315 365.984 349.308 371.08C347.252 371.738 345.402 372.921 343.94 374.512C343.633 374.849 343.326 375.321 343.536 375.726C343.715 376.07 344.164 376.153 344.554 376.198C345.49 376.295 346.433 376.392 347.369 376.49C345.362 382.515 343.521 388.75 339.972 393.838C337.611 397.197 334.535 399.99 330.964 402.013C329.991 402.569 328.986 403.067 327.955 403.505C324.151 403.797 320.42 404.109 316.761 404.441C315.361 404.569 313.971 404.699 312.591 404.831C311.445 404.936 310.315 405.048 309.192 405.153C309.184 404.741 309.184 404.329 309.192 403.917C309.428 392.938 313.464 382.381 320.61 374.047C320.947 373.657 321.291 373.275 321.643 372.893C325.263 369.023 329.52 365.804 334.229 363.376C341.648 359.515 349.964 357.709 358.315 358.145Z" fill="#6C63FF"/>
<path d="M313.886 400.987L313.025 403.535L312.591 404.831C311.445 404.936 310.315 405.048 309.192 405.153L308.99 405.176C307.747 405.303 306.511 405.431 305.276 405.558C304.954 405.183 304.632 404.801 304.317 404.411C296.502 394.94 292.751 382.757 293.883 370.525C295.015 358.294 300.939 347.008 310.36 339.134C309.371 344.312 310.524 349.273 312.419 354.196C312.216 354.279 312.022 354.361 311.835 354.451C310.385 355.134 309.083 356.094 308.001 357.276C307.694 357.613 307.387 358.086 307.597 358.49C307.777 358.835 308.226 358.917 308.615 358.962C309.551 359.06 310.494 359.157 311.43 359.254C312.179 359.337 312.928 359.412 313.676 359.494C314.028 359.532 314.38 359.569 314.732 359.607C314.785 359.719 314.83 359.824 314.882 359.936C317.016 364.568 319.314 369.221 320.61 374.047C320.934 375.258 321.189 376.486 321.373 377.726C321.95 381.917 321.576 386.185 320.28 390.211C318.984 394.238 316.799 397.921 313.886 400.987Z" fill="#6C63FF"/>
<path d="M389.251 292.299C382.806 279.715 372.82 269.128 361.075 261.347C349.293 253.578 335.773 248.846 321.72 247.574C319.878 247.406 318.032 247.308 316.18 247.28C313.993 247.247 281.091 256.745 270.069 264.502C259.053 272.163 249.991 282.31 243.614 294.122C237.249 305.999 234.118 319.343 234.536 332.814C235.081 346.367 238.855 359.592 245.544 371.389C252.141 383.147 261.508 393.114 272.83 400.424C284.314 407.757 295.85 427.203 309.409 427.889C323.07 428.581 338.65 410.238 351.109 404.668C363.569 399.053 374.34 390.267 382.35 379.186C390.133 368.327 395.169 355.741 397.024 342.506C398.951 328.955 398.053 314.98 393.429 302.028C392.243 298.7 390.847 295.451 389.251 292.299C387.919 289.672 384.013 288.705 381.568 290.283C380.309 291.059 379.396 292.291 379.021 293.723C378.646 295.155 378.837 296.677 379.554 297.972C380.336 299.515 381.064 301.083 381.736 302.676L381.17 301.334C383.716 307.46 385.447 313.894 386.319 320.471L386.118 318.977C387.046 326.113 387.029 333.34 386.069 340.471L386.269 338.977C385.299 346.108 383.397 353.08 380.613 359.715L381.179 358.373C379.747 361.758 378.078 365.038 376.184 368.188C375.224 369.779 374.206 371.334 373.129 372.85C372.656 373.516 372.168 374.17 371.677 374.822C371.036 375.673 372.551 373.71 371.888 374.545C371.776 374.687 371.663 374.83 371.55 374.972C371.21 375.397 370.865 375.819 370.516 376.236C368.181 379.024 365.634 381.625 362.896 384.018C362.214 384.613 361.521 385.195 360.816 385.764C360.465 386.048 360.119 386.343 359.753 386.607C359.767 386.597 360.935 385.708 360.243 386.224C360.026 386.387 359.81 386.551 359.592 386.713C358.14 387.79 356.649 388.812 355.119 389.779C351.598 392 347.903 393.933 344.071 395.559L345.413 394.993C338.803 397.778 331.856 399.68 324.75 400.651L326.243 400.451C319.141 401.411 311.943 401.424 304.838 400.489L306.331 400.689C299.873 399.822 293.556 398.112 287.541 395.605L288.883 396.172C285.399 394.7 282.04 392.948 278.838 390.933C277.253 389.934 275.71 388.873 274.208 387.75C273.994 387.59 273.781 387.428 273.568 387.266C272.882 386.749 274.06 387.648 274.07 387.655C273.671 387.369 273.288 387.062 272.92 386.737C272.195 386.146 271.481 385.541 270.778 384.922C267.966 382.443 265.34 379.761 262.922 376.897C262.316 376.18 261.724 375.453 261.144 374.716C260.893 374.396 260.435 373.749 261.447 375.112C261.314 374.933 261.176 374.757 261.041 374.578C260.718 374.15 260.4 373.718 260.086 373.283C258.986 371.761 257.941 370.201 256.951 368.603C254.712 364.987 252.758 361.201 251.106 357.281L251.673 358.624C248.97 352.189 247.123 345.428 246.177 338.513L246.377 340.007C245.524 333.633 245.511 327.174 246.341 320.796L246.14 322.291C246.991 316.115 248.651 310.078 251.078 304.336L250.512 305.679C252.039 302.085 253.84 298.613 255.899 295.295C256.93 293.635 258.023 292.015 259.177 290.436C259.439 290.077 259.704 289.721 259.972 289.366C260.215 289.045 260.882 288.247 259.743 289.657C259.855 289.519 259.963 289.377 260.073 289.237C260.706 288.434 261.355 287.643 262.019 286.865C264.533 283.92 267.256 281.16 270.167 278.607C270.903 277.962 271.651 277.33 272.41 276.712C272.754 276.431 273.102 276.153 273.451 275.878C273.591 275.768 273.732 275.66 273.872 275.549C272.376 276.74 273.456 275.873 273.795 275.619C275.36 274.445 276.966 273.331 278.614 272.275C282.277 269.931 286.131 267.898 290.134 266.2L288.793 266.766C294.603 264.324 320.344 258.561 325.026 259.19L323.533 258.99C330.415 259.951 337.141 261.811 343.539 264.522L342.198 263.955C345.44 265.333 348.591 266.917 351.632 268.698C353.151 269.589 354.64 270.529 356.1 271.518C356.79 271.985 357.474 272.464 358.15 272.953C358.488 273.197 358.824 273.444 359.158 273.694C359.343 273.832 359.528 273.973 359.713 274.112C360.491 274.695 358.641 273.266 359.457 273.912C362.187 276.059 364.779 278.374 367.219 280.846C368.418 282.067 369.575 283.328 370.691 284.627C371.264 285.293 371.824 285.97 372.373 286.656C372.646 286.997 373.575 288.23 372.436 286.719C372.715 287.088 372.996 287.455 373.271 287.827C375.637 291.033 377.738 294.425 379.554 297.972C380.896 300.593 384.785 301.571 387.237 299.989C388.497 299.213 389.409 297.98 389.785 296.548C390.16 295.116 389.969 293.594 389.251 292.299Z" fill="#3F3D56"/>
<path d="M323.82 384.018C323.241 384.044 322.667 383.892 322.176 383.581C321.686 383.271 321.303 382.817 321.079 382.281C320.855 381.745 320.802 381.153 320.925 380.586C321.048 380.018 321.343 379.503 321.769 379.108C321.84 378.825 321.892 378.621 321.963 378.337C321.938 378.275 321.912 378.213 321.886 378.152C319.281 371.934 302.655 389.267 301.936 395.111C301.62 397.694 301.753 400.313 302.331 402.85C296.946 391.093 294.149 378.314 294.131 365.38C294.13 362.134 294.31 358.891 294.671 355.665C294.969 353.021 295.382 350.396 295.911 347.789C298.798 333.646 304.995 320.39 313.994 309.11C319.141 309.397 323.651 308.612 324.087 298.629C324.164 296.854 325.48 295.316 325.77 293.567C325.279 293.631 324.779 293.671 324.288 293.704C324.135 293.712 323.974 293.72 323.821 293.728L323.763 293.73C323.223 293.755 322.688 293.622 322.221 293.349C321.755 293.076 321.377 292.673 321.134 292.19C320.89 291.707 320.792 291.164 320.85 290.626C320.908 290.088 321.12 289.578 321.46 289.158C321.672 288.897 321.885 288.636 322.097 288.375C322.419 287.972 322.75 287.577 323.072 287.174C323.109 287.135 323.144 287.095 323.177 287.053C323.547 286.593 323.918 286.142 324.288 285.682C323.612 284.632 322.702 283.752 321.63 283.111C317.917 280.934 312.794 282.442 310.112 285.803C307.421 289.165 306.914 293.881 307.848 298.081C308.767 301.655 310.287 305.046 312.343 308.11C312.142 308.368 311.932 308.618 311.731 308.876C308.05 313.613 304.841 318.7 302.152 324.064C302.913 318.115 293.608 296.631 290.009 292.081C285.687 286.615 276.823 289 276.062 295.929C276.055 295.996 276.047 296.063 276.04 296.13C276.575 296.432 277.098 296.752 277.61 297.091C278.253 297.521 278.751 298.136 279.04 298.854C279.328 299.572 279.393 300.361 279.225 301.117C279.058 301.873 278.667 302.56 278.102 303.089C277.538 303.619 276.827 303.965 276.062 304.083L275.984 304.095C268.829 314.319 291.765 340.93 297.506 334.955C294.804 342.619 293.109 350.603 292.464 358.705C292.099 363.485 292.12 368.286 292.528 373.062L292.504 372.893C291.229 362.49 269.345 347.023 262.955 348.311C259.274 349.054 255.648 348.885 256.207 352.601C256.216 352.661 256.225 352.72 256.234 352.779C257.226 353.184 258.191 353.65 259.125 354.174C259.66 354.476 260.183 354.796 260.695 355.135C261.338 355.565 261.837 356.18 262.125 356.898C262.413 357.616 262.478 358.405 262.31 359.161C262.143 359.916 261.752 360.604 261.187 361.133C260.623 361.663 259.912 362.009 259.147 362.127L259.069 362.139C259.013 362.147 258.964 362.155 258.908 362.163C255.651 373.378 279.803 391.478 294.486 385.719H294.494C295.949 392.048 298.057 398.208 300.784 404.1H323.257C323.338 403.85 323.41 403.592 323.483 403.342C321.402 403.473 319.314 403.348 317.264 402.971C318.932 400.924 320.599 398.86 322.266 396.812C322.303 396.774 322.338 396.733 322.371 396.691C323.217 395.643 324.071 394.603 324.916 393.555L324.917 393.554C324.962 390.341 324.593 387.137 323.821 384.018L323.82 384.018ZM298.086 333.351L298.098 333.335L298.086 333.367V333.351ZM293.108 378.262L292.915 377.827C292.923 377.513 292.923 377.198 292.915 376.876C292.915 376.787 292.899 376.698 292.899 376.61C292.971 377.166 293.036 377.722 293.116 378.278L293.108 378.262Z" fill="#3F3D56"/>
<path d="M71.3151 337.216C75.8636 337.216 79.551 333.525 79.551 328.973C79.551 324.42 75.8636 320.729 71.3151 320.729C66.7665 320.729 63.0791 324.42 63.0791 328.973C63.0791 333.525 66.7665 337.216 71.3151 337.216Z" fill="#3F3D56"/>
<path d="M170.146 427.14C174.695 427.14 178.382 423.449 178.382 418.897C178.382 414.344 174.695 410.654 170.146 410.654C165.598 410.654 161.91 414.344 161.91 418.897C161.91 423.449 165.598 427.14 170.146 427.14Z" fill="#3F3D56"/>
<path d="M545.256 427.14C549.805 427.14 553.492 423.449 553.492 418.897C553.492 414.344 549.805 410.654 545.256 410.654C540.708 410.654 537.021 414.344 537.021 418.897C537.021 423.449 540.708 427.14 545.256 427.14Z" fill="#3F3D56"/>
<path d="M565.472 322.228C570.021 322.228 573.708 318.538 573.708 313.985C573.708 309.433 570.021 305.742 565.472 305.742C560.924 305.742 557.236 309.433 557.236 313.985C557.236 318.538 560.924 322.228 565.472 322.228Z" fill="#3F3D56"/>
<path d="M541.513 245.793C546.061 245.793 549.749 242.102 549.749 237.55C549.749 232.997 546.061 229.307 541.513 229.307C536.964 229.307 533.277 232.997 533.277 237.55C533.277 242.102 536.964 245.793 541.513 245.793Z" fill="#3F3D56"/>
<path d="M197.849 313.985C197.844 316.091 197.031 318.114 195.577 319.636C194.123 321.158 192.14 322.062 190.039 322.161C187.937 322.261 185.878 321.548 184.287 320.17C182.696 318.793 181.696 316.855 181.492 314.76C181.289 312.664 181.898 310.57 183.194 308.912C184.49 307.253 186.373 306.156 188.454 305.849C190.536 305.541 192.655 306.047 194.375 307.26C196.094 308.473 197.282 310.301 197.692 312.366C197.798 312.899 197.85 313.442 197.849 313.985Z" fill="#3F3D56"/>
<path d="M362.568 269.772C367.117 269.772 370.804 266.082 370.804 261.529C370.804 256.977 367.117 253.286 362.568 253.286C358.019 253.286 354.332 256.977 354.332 261.529C354.332 266.082 358.019 269.772 362.568 269.772Z" fill="#3F3D56"/>
<path d="M280.958 261.529C280.953 263.635 280.139 265.658 278.685 267.18C277.231 268.702 275.249 269.606 273.147 269.706C271.046 269.805 268.987 269.092 267.396 267.715C265.805 266.337 264.804 264.4 264.601 262.304C264.397 260.208 265.006 258.115 266.302 256.456C267.598 254.797 269.481 253.701 271.563 253.393C273.644 253.086 275.764 253.591 277.483 254.804C279.203 256.017 280.39 257.846 280.8 259.911C280.906 260.444 280.959 260.986 280.958 261.529Z" fill="#3F3D56"/>
<path d="M174.639 237.55C174.634 239.655 173.82 241.678 172.366 243.2C170.913 244.722 168.93 245.626 166.828 245.726C164.727 245.825 162.668 245.113 161.077 243.735C159.486 242.357 158.485 240.42 158.282 238.324C158.078 236.229 158.687 234.135 159.983 232.476C161.279 230.817 163.163 229.721 165.244 229.413C167.325 229.106 169.445 229.611 171.164 230.824C172.884 232.037 174.071 233.866 174.481 235.931C174.587 236.464 174.64 237.006 174.639 237.55Z" fill="#3F3D56"/>
<path d="M448.671 340.213C453.22 340.213 456.907 336.522 456.907 331.97C456.907 327.417 453.22 323.727 448.671 323.727C444.123 323.727 440.436 327.417 440.436 331.97C440.436 336.522 444.123 340.213 448.671 340.213Z" fill="#3F3D56"/>
<path d="M319.142 265.276C325.758 265.276 331.122 259.908 331.122 253.286C331.122 246.665 325.758 241.297 319.142 241.297C312.526 241.297 307.163 246.665 307.163 253.286C307.163 259.908 312.526 265.276 319.142 265.276Z" fill="#3F3D56"/>
<path d="M643.109 427.77L0.891485 428C0.774413 428 0.658484 427.977 0.550323 427.932C0.442163 427.887 0.343892 427.821 0.261109 427.739C0.178327 427.656 0.112652 427.557 0.0678507 427.449C0.0230492 427.341 0 427.225 0 427.108C0 426.99 0.0230492 426.874 0.0678507 426.766C0.112652 426.658 0.178327 426.56 0.261109 426.477C0.343892 426.394 0.442163 426.328 0.550323 426.283C0.658484 426.238 0.774413 426.215 0.891485 426.215L643.109 425.985C643.344 425.986 643.571 426.08 643.737 426.247C643.904 426.415 643.997 426.641 643.997 426.877C643.997 427.114 643.904 427.34 643.737 427.507C643.571 427.675 643.344 427.769 643.109 427.77Z" fill="#CACACA"/>
</g>
<defs>
<clipPath id="clip0_552_3">
<rect width="644" height="428" fill="white"/>
</clipPath>
</defs>
</svg>
