<svg width="589" height="351" viewBox="0 0 589 351" fill="none" xmlns="http://www.w3.org/2000/svg">
<g clip-path="url(#clip0_422_113)">
<path d="M450.952 347.031C443.411 340.68 438.831 330.646 440.032 320.879C441.233 311.112 448.673 302.133 458.324 300.058C467.975 297.984 478.976 303.726 481.907 313.122C483.52 295.006 485.379 276.13 495.042 260.703C503.792 246.733 518.947 236.737 535.371 234.949C551.795 233.161 569.088 239.915 579.331 252.836C589.574 265.758 592.082 284.543 584.908 299.378C579.623 310.307 569.887 318.44 559.685 325.056C526.72 346.257 487.183 354.878 448.348 349.334L450.952 347.031Z" fill="#3F72AF" fill-opacity="0.4"/>
<path d="M563.089 240.289C549.537 251.292 537.105 263.597 525.971 277.028C508.548 297.975 494.448 321.46 484.165 346.665C483.412 348.504 486.407 349.305 487.152 347.486C503.978 306.522 530.84 270.417 565.28 242.473C566.826 241.217 564.623 239.044 563.089 240.289Z" fill="white"/>
<path d="M189.609 345.305C199.966 336.582 206.257 322.801 204.607 309.386C202.957 295.97 192.739 283.637 179.484 280.789C166.228 277.94 151.118 285.826 147.092 298.732C144.877 273.849 142.324 247.924 129.051 226.733C117.033 207.546 96.2184 193.817 73.6597 191.361C51.1009 188.905 27.3494 198.181 13.2803 215.929C-0.788783 233.677 -4.23354 259.478 5.62008 279.854C12.8789 294.864 26.2522 306.035 40.2641 315.123C84.9668 344.117 140.421 356.209 193.186 348.469" fill="#3F72AF" fill-opacity="0.4"/>
<path d="M35.5882 198.695C54.202 213.808 71.2781 230.709 86.5697 249.156C101.864 267.584 115.328 287.447 126.775 308.467C133.173 320.257 138.92 332.388 143.991 344.803C145.025 347.329 140.911 348.428 139.889 345.931C130.906 324.042 119.793 303.084 106.709 283.357C93.6883 263.701 78.7855 245.35 62.2098 228.562C52.8346 219.072 42.9429 210.102 32.5795 201.694C30.4554 199.97 33.4815 196.986 35.5882 198.696L35.5882 198.695Z" fill="white"/>
<path d="M422.794 350.232H175.685V97.5115C175.685 43.7434 219.57 0 273.513 0H324.966C378.908 0 422.794 43.7434 422.794 97.5115V350.232Z" fill="#3F72AF" fill-opacity="0.4"/>
<path d="M371.341 350.232H175.684V97.5117C175.63 76.909 182.176 56.827 194.367 40.1895C194.816 39.579 195.265 38.9763 195.727 38.3802C201.624 30.6711 208.641 23.8819 216.548 18.2365C216.995 17.9126 217.443 17.5943 217.898 17.276C224.514 12.7124 231.671 8.98185 239.205 6.16911C239.652 6.00007 240.108 5.83071 240.563 5.66826C247.378 3.24435 254.441 1.58399 261.624 0.717828C262.07 0.657195 262.527 0.609749 262.984 0.562303C269.984 -0.183691 277.043 -0.183691 284.043 0.562303C284.498 0.609749 284.956 0.657189 285.406 0.718476C292.587 1.5847 299.649 3.24486 306.462 5.66829C306.917 5.83074 307.373 6.00009 307.822 6.16946C315.263 8.94672 322.335 12.6216 328.881 17.1122C329.336 17.4236 329.791 17.7419 330.239 18.0602C334.671 21.2135 338.834 24.7264 342.685 28.5631C345.774 31.6406 348.652 34.921 351.3 38.3823C351.76 38.9764 352.209 39.579 352.657 40.1886C364.849 56.8262 371.395 76.9086 371.341 97.5117V350.232Z" fill="#3F72AF"/>
<path d="M355.431 237.199C361.414 237.199 366.263 232.365 366.263 226.402C366.263 220.439 361.414 215.605 355.431 215.605C349.449 215.605 344.599 220.439 344.599 226.402C344.599 232.365 349.449 237.199 355.431 237.199Z" fill="#5271FF"/>
<path d="M402.55 342.662H394.25L390.301 310.751L402.552 310.752L402.55 342.662Z" fill="#FFB8B8"/>
<path d="M388.321 340.298H404.328V350.344H378.243C378.243 349.025 378.503 347.719 379.01 346.5C379.516 345.281 380.259 344.173 381.195 343.241C382.131 342.308 383.242 341.568 384.464 341.063C385.687 340.558 386.998 340.298 388.321 340.298V340.298Z" fill="#112D4E"/>
<path d="M443.848 342.662H435.548L431.599 310.751L443.849 310.752L443.848 342.662Z" fill="#FFB8B8"/>
<path d="M429.619 340.298H445.626V350.344H419.541C419.541 349.025 419.801 347.719 420.308 346.5C420.814 345.281 421.557 344.173 422.492 343.241C423.428 342.308 424.539 341.568 425.762 341.063C426.985 340.558 428.296 340.298 429.619 340.298V340.298Z" fill="#112D4E"/>
<path d="M360.913 228.541C360.316 227.664 359.919 226.667 359.75 225.621C359.581 224.575 359.645 223.504 359.936 222.485C360.227 221.466 360.739 220.522 361.435 219.722C362.132 218.921 362.996 218.282 363.967 217.85L392.182 140.336L406.065 147.888L373.85 221.963C374.47 223.637 374.452 225.48 373.8 227.141C373.148 228.803 371.907 230.169 370.313 230.98C368.718 231.791 366.88 231.99 365.148 231.541C363.416 231.091 361.909 230.024 360.913 228.541V228.541Z" fill="#FFB8B8"/>
<path d="M439.608 243.106C438.686 242.579 437.891 241.857 437.279 240.99C436.667 240.124 436.253 239.134 436.066 238.091C435.879 237.047 435.924 235.976 436.198 234.952C436.471 233.928 436.967 232.976 437.65 232.163L428.909 150.166L444.709 150.886L448.341 231.54C449.635 232.774 450.429 234.438 450.575 236.216C450.72 237.995 450.205 239.764 449.129 241.19C448.052 242.616 446.489 243.598 444.734 243.951C442.979 244.305 441.155 244.004 439.608 243.106V243.106Z" fill="#FFB8B8"/>
<path d="M414.403 125.978C423.586 125.978 431.031 118.557 431.031 109.404C431.031 100.25 423.586 92.8293 414.403 92.8293C405.219 92.8293 397.775 100.25 397.775 109.404C397.775 118.557 405.219 125.978 414.403 125.978Z" fill="#FFB8B8"/>
<path d="M439.502 224.458H389.372L389.432 224.069C389.522 223.488 398.366 165.738 391.843 146.845C391.189 144.989 391.246 142.956 392.005 141.139C392.763 139.323 394.169 137.85 395.952 137.004H395.952C405.276 132.628 423.173 127.239 438.279 140.317C440.502 142.273 442.238 144.718 443.349 147.458C444.461 150.198 444.918 153.159 444.683 156.105L439.502 224.458Z" fill="#5271FF"/>
<path d="M399 174.273L376.43 169.709L387.01 144.72C387.643 142.3 389.213 140.229 391.376 138.961C393.539 137.693 396.118 137.332 398.548 137.958C400.978 138.583 403.059 140.143 404.336 142.296C405.614 144.449 405.982 147.019 405.36 149.442L399 174.273Z" fill="#5271FF"/>
<path d="M427.905 182.747L426.549 151.745C425.52 145.917 428.867 140.407 434.014 139.507C439.163 138.61 444.191 142.652 445.224 148.522L450.324 177.491L427.905 182.747Z" fill="#5271FF"/>
<path d="M437.834 220.746C445.9 251.367 446.78 290.3 444.604 332.766L433.772 331.417L414.139 250.438L403.307 332.766L391.12 332.092C387.48 287.533 383.935 249.281 389.766 224.12L437.834 220.746Z" fill="#112D4E"/>
<path d="M425.359 122.213C422.257 125.506 416.496 123.738 416.092 119.239C416.06 118.889 416.062 118.538 416.099 118.189C416.307 116.196 417.463 114.386 417.186 112.282C417.123 111.758 416.927 111.259 416.617 110.832C414.145 107.532 408.342 112.307 406.01 109.32C404.579 107.489 406.261 104.605 405.163 102.558C403.714 99.8567 399.423 101.189 396.731 99.7099C393.737 98.0636 393.916 93.4845 395.887 90.6992C398.291 87.3024 402.506 85.4899 406.668 85.2287C410.83 84.9675 414.963 86.0889 418.849 87.5983C423.263 89.3132 427.641 91.6833 430.358 95.5528C433.662 100.258 433.98 106.585 432.328 112.087C431.323 115.434 427.892 119.523 425.359 122.213Z" fill="#112D4E"/>
<path d="M568.677 350.666H68.8436C68.6302 350.665 68.4257 350.58 68.2751 350.43C68.1244 350.279 68.0398 350.075 68.0398 349.862C68.0398 349.65 68.1244 349.446 68.2751 349.295C68.4257 349.144 68.6302 349.059 68.8436 349.059H568.677C568.89 349.059 569.095 349.144 569.246 349.295C569.396 349.446 569.481 349.65 569.481 349.862C569.481 350.075 569.396 350.279 569.246 350.43C569.095 350.58 568.89 350.665 568.677 350.666V350.666Z" fill="#112D4E"/>
<path d="M317.518 277.014H229.507C228.348 277.02 227.233 276.568 226.408 275.756C225.583 274.944 225.115 273.84 225.106 272.685V76.8723C225.115 75.717 225.583 74.6124 226.408 73.8008C227.233 72.9892 228.348 72.5369 229.507 72.5432H317.518C318.677 72.5369 319.792 72.9892 320.617 73.8008C321.442 74.6124 321.91 75.717 321.919 76.8723V272.685C321.91 273.84 321.442 274.944 320.617 275.756C319.792 276.568 318.677 277.02 317.518 277.014V277.014Z" fill="white"/>
<path d="M321.919 135.902H225.106V137.251H321.919V135.902Z" fill="#3F72AF" fill-opacity="0.6"/>
<path d="M322.257 212.906H225.445V214.255H322.257V212.906Z" fill="#3F72AF" fill-opacity="0.6"/>
<path d="M256.926 72.5432H255.572V277.689H256.926V72.5432Z" fill="#3F72AF" fill-opacity="0.6"/>
<path d="M290.776 72.5432H289.422V277.689H290.776V72.5432Z" fill="#3F72AF" fill-opacity="0.6"/>
</g>
<defs>
<clipPath id="clip0_422_113">
<rect width="589" height="351" fill="white"/>
</clipPath>
</defs>
</svg>
