<svg width="481" height="465" viewBox="0 0 481 465" fill="none" xmlns="http://www.w3.org/2000/svg">
<g clip-path="url(#clip0_465_184)">
<path d="M427.338 353.878L427.329 354.088L438.621 465H356.217L345.536 396.881L340.834 463.253L256.211 462.38L265.2 375.24L272.845 334.849V334.84L273.992 328.761H425.091L425.288 330.962L427.338 353.878Z" fill="#112D4E"/>
<path d="M209.567 418.174C218.294 419.651 227.394 410.522 229.893 397.784C230.987 392.208 230.634 386.865 229.159 382.496L230.498 375.153L252.954 276.372C252.954 276.372 294.307 199.541 294.306 186.202C294.305 172.864 282.344 166.323 282.344 166.323L266.158 166.464L215.4 281.609L206.259 366.696L204.78 378.37C201.741 381.976 199.382 386.86 198.289 392.436C195.79 405.174 200.84 416.697 209.567 418.174Z" fill="#FFB6B6"/>
<path d="M374.214 118.727L359.17 86.414L310.276 94.2739L306.985 132.291L374.214 118.727Z" fill="#FFB6B6"/>
<path opacity="0.1" d="M374.214 118.727L359.17 86.414L310.276 94.2739L306.985 132.291L374.214 118.727Z" fill="black"/>
<path d="M480.463 185.973C480.463 185.973 445.673 125.714 439.092 119.6C436.161 116.879 431.556 116.841 427.345 117.634L378.915 102.134L362.5 93.5672L361.418 109.865L307.527 118.849C307.827 108.91 309.336 105.13 309.336 105.13L289.591 126.587L251.04 144.053L251.061 144.211C248.232 145.128 245.55 146.697 243.518 149.293C235.996 158.9 215.311 275.925 215.311 275.925L259.503 284.659L265.517 249.604L269.845 281.165L273.136 340.115C273.136 340.115 333.313 388.147 362.461 370.681C391.609 353.214 427.338 354.088 427.338 354.088L428.23 326.763C428.864 325.821 429.219 325.268 429.219 325.268L428.279 228.343V202.552C435.442 211.821 444.086 219.792 454.136 223.526C487.045 235.752 480.463 185.973 480.463 185.973V185.973Z" fill="#3F72AF"/>
<path d="M329.612 99.9593C354.454 99.9593 374.593 81.2544 374.593 58.1808C374.593 35.1072 354.454 16.4023 329.612 16.4023C304.77 16.4023 284.632 35.1072 284.632 58.1808C284.632 81.2544 304.77 99.9593 329.612 99.9593Z" fill="#FFB6B6"/>
<path d="M361.881 69.9877C361.881 69.9877 365.792 57.2725 374.593 58.1808C383.393 59.089 385.349 51.8232 383.393 48.1903C381.437 44.5574 377.526 26.3928 377.526 26.3928C377.526 26.3928 379.482 13.6776 367.748 11.8611C356.014 10.0447 352.102 8.22823 350.147 4.59531C348.191 0.962398 318.856 -2.67052 309.078 2.77886C299.299 8.22823 291.477 18.6836 284.632 21.63C277.787 24.5763 271.92 30.0257 275.831 39.108C279.743 48.1903 285.415 65.9533 285.415 65.9533C285.415 65.9533 295.388 62.7219 297.344 68.1713C299.299 73.6206 291.477 66.3548 301.255 51.8232C311.033 37.2915 311.033 22.7599 326.679 28.2092C342.324 33.6586 359.925 31.8422 357.969 42.7409C356.014 53.6396 361.881 69.9877 361.881 69.9877V69.9877Z" fill="#112D4E"/>
<path d="M359.13 401.191H17.52C7.85928 401.191 0 393.891 0 384.918V216.373C0 207.401 7.85928 200.1 17.52 200.1H359.13C368.791 200.1 376.65 207.401 376.65 216.373V384.918C376.65 393.891 368.791 401.191 359.13 401.191Z" fill="#F9F7F7"/>
<path d="M359.13 401.191H17.52C7.85928 401.191 0 393.891 0 384.918V216.373C0 207.401 7.85928 200.1 17.52 200.1H359.13C368.791 200.1 376.65 207.401 376.65 216.373V384.918C376.65 393.891 368.791 401.191 359.13 401.191ZM17.52 202.818C9.47286 202.818 2.92571 208.899 2.92571 216.373V384.918C2.92571 392.393 9.47286 398.474 17.52 398.474H359.13C367.178 398.474 373.725 392.393 373.725 384.918V216.373C373.725 208.899 367.178 202.818 359.13 202.818H17.52Z" fill="#112D4E"/>
<path d="M332.765 220.481C335.188 220.481 337.153 218.656 337.153 216.405C337.153 214.154 335.188 212.329 332.765 212.329C330.341 212.329 328.376 214.154 328.376 216.405C328.376 218.656 330.341 220.481 332.765 220.481Z" fill="#112D4E"/>
<path d="M344.468 220.481C346.891 220.481 348.856 218.656 348.856 216.405C348.856 214.154 346.891 212.329 344.468 212.329C342.044 212.329 340.079 214.154 340.079 216.405C340.079 218.656 342.044 220.481 344.468 220.481Z" fill="#112D4E"/>
<path d="M356.17 220.481C358.594 220.481 360.559 218.656 360.559 216.405C360.559 214.154 358.594 212.329 356.17 212.329C353.747 212.329 351.782 214.154 351.782 216.405C351.782 218.656 353.747 220.481 356.17 220.481Z" fill="#112D4E"/>
<path d="M24.8686 282.303C23.6586 282.303 22.6743 283.217 22.6743 284.341C22.6743 284.889 22.9022 285.396 23.3157 285.77C23.7329 286.167 24.2793 286.379 24.8686 286.379H353.245C354.455 286.379 355.439 285.465 355.439 284.341C355.439 283.793 355.211 283.286 354.798 282.912C354.38 282.515 353.834 282.303 353.245 282.303H24.8686Z" fill="#DBE2EF"/>
<path d="M312.285 281.624V287.058H24.8686C24.064 287.058 23.3326 286.76 22.806 286.257C22.2647 285.768 21.9429 285.088 21.9429 284.341C21.9429 282.846 23.2595 281.624 24.8686 281.624H312.285Z" fill="#5271FF"/>
<path d="M349.588 271.433H320.33C317.104 271.433 314.479 268.996 314.479 265.998C314.479 263.001 317.104 260.563 320.33 260.563H349.588C352.814 260.563 355.439 263.001 355.439 265.998C355.439 268.996 352.814 271.433 349.588 271.433Z" fill="#DBE2EF"/>
<path d="M157.953 242.9H27.0629C23.8364 242.9 21.2114 240.463 21.2114 237.465C21.2114 234.468 23.8364 232.03 27.0629 232.03H157.953C161.18 232.03 163.805 234.468 163.805 237.465C163.805 240.463 161.18 242.9 157.953 242.9Z" fill="#DBE2EF"/>
<path d="M24.8686 343.446C23.6586 343.446 22.6743 344.36 22.6743 345.484C22.6743 346.032 22.9022 346.538 23.3157 346.913C23.7329 347.309 24.2793 347.522 24.8686 347.522H353.245C354.455 347.522 355.439 346.607 355.439 345.484C355.439 344.936 355.211 344.429 354.798 344.055C354.38 343.658 353.834 343.446 353.245 343.446H24.8686Z" fill="#DBE2EF"/>
<path d="M199.645 342.766V348.201H24.8686C24.064 348.201 23.3326 347.902 22.806 347.399C22.2647 346.91 21.9429 346.231 21.9429 345.484C21.9429 343.989 23.2595 342.766 24.8686 342.766H199.645Z" fill="#5271FF"/>
<path d="M349.588 332.576H320.33C317.104 332.576 314.479 330.138 314.479 327.141C314.479 324.143 317.104 321.706 320.33 321.706H349.588C352.814 321.706 355.439 324.143 355.439 327.141C355.439 330.138 352.814 332.576 349.588 332.576Z" fill="#DBE2EF"/>
<path d="M400.807 103.175C426.11 103.175 446.622 84.5244 446.622 61.5177C446.622 38.511 426.11 19.8604 400.807 19.8604C375.503 19.8604 354.991 38.511 354.991 61.5177C354.991 84.5244 375.503 103.175 400.807 103.175Z" fill="#5271FF"/>
<path d="M416.356 40.5055C410.257 50.8213 404.157 61.1372 398.058 71.4531C394.17 65.0735 390.304 58.6826 386.407 52.308C385.061 50.1064 381.401 52.0866 382.75 54.2936C387.267 61.6833 391.738 69.0975 396.255 76.4871C397.028 77.7506 399.148 77.7799 399.913 76.4871C406.613 65.1551 413.313 53.8231 420.014 42.4911C421.326 40.2706 417.67 38.2833 416.356 40.5055Z" fill="#F9F7F7"/>
<path d="M464.052 171.322L418.406 151.04C418.406 151.04 416.572 137.465 408.012 132.623C406.557 129.399 404.882 125.856 403.362 123.049C399.6 116.107 405.242 103.007 400.541 103.007C395.839 103.007 388.89 116.784 389.258 120.474C389.54 123.306 392.06 128.25 392.581 132.579C386.848 134.587 382.223 138.029 379.183 140.77C376.551 143.141 375.573 146.68 376.602 149.949C379.582 159.422 387.031 178.986 397.72 178.986C411.824 178.986 415.585 176.366 415.585 176.366C415.585 176.366 444.733 210.426 466.359 213.046C487.985 215.666 464.052 171.322 464.052 171.322V171.322Z" fill="#FFB6B6"/>
</g>
<defs>
<clipPath id="clip0_465_184">
<rect width="481" height="465" fill="white"/>
</clipPath>
</defs>
</svg>
