<svg width="481" height="465" viewBox="0 0 481 465" fill="none" xmlns="http://www.w3.org/2000/svg">
<g clip-path="url(#clip0_424_55)">
<path d="M438.817 444.857C438.303 444.88 437.794 444.746 437.359 444.47C436.925 444.195 436.585 443.793 436.386 443.318C436.188 442.844 436.14 442.319 436.249 441.817C436.359 441.314 436.62 440.857 436.998 440.508L437.17 439.824C437.148 439.769 437.125 439.715 437.102 439.66C436.584 438.437 435.716 437.394 434.607 436.663C433.499 435.931 432.198 435.544 430.87 435.549C429.542 435.554 428.244 435.951 427.141 436.691C426.038 437.43 425.178 438.479 424.669 439.706C422.636 444.603 420.047 449.507 419.409 454.684C419.128 456.973 419.247 459.292 419.759 461.54C414.983 451.124 412.503 439.804 412.487 428.346C412.486 425.47 412.646 422.597 412.966 419.74C413.23 417.397 413.597 415.071 414.066 412.762C416.626 400.233 422.122 388.49 430.103 378.496C433.966 376.389 437.089 373.149 439.054 369.212C439.765 367.797 440.268 366.286 440.547 364.727C440.111 364.784 438.904 358.15 439.232 357.743C438.625 356.821 437.538 356.363 436.875 355.464C433.576 350.993 429.032 351.774 426.66 357.85C421.592 360.407 421.543 364.648 424.652 368.727C426.631 371.321 426.903 374.833 428.638 377.611C428.46 377.839 428.274 378.061 428.096 378.289C424.831 382.486 421.986 386.993 419.6 391.744C420.18 386.421 419.488 381.036 417.58 376.033C415.647 371.369 412.023 367.442 408.832 363.411C404.998 358.568 397.138 360.682 396.462 366.82C396.456 366.879 396.449 366.939 396.443 366.998C396.917 367.266 397.381 367.549 397.835 367.85C398.405 368.23 398.847 368.775 399.103 369.411C399.359 370.048 399.416 370.746 399.268 371.416C399.119 372.085 398.772 372.695 398.272 373.163C397.771 373.632 397.14 373.939 396.462 374.043L396.393 374.054C396.562 375.762 396.86 377.455 397.286 379.118C393.192 394.947 402.031 400.712 414.652 400.971C414.93 401.114 415.202 401.257 415.48 401.393C413.084 408.182 411.581 415.255 411.009 422.432C410.685 426.667 410.704 430.92 411.066 435.152L411.044 435.002C410.13 430.297 407.619 426.051 403.936 422.982C398.467 418.49 390.739 416.836 384.838 413.225C384.211 412.822 383.482 412.608 382.736 412.606C381.991 412.604 381.261 412.815 380.632 413.215C380.003 413.614 379.501 414.185 379.186 414.86C378.871 415.536 378.755 416.287 378.853 417.025C378.861 417.078 378.869 417.131 378.877 417.183C379.757 417.541 380.613 417.954 381.442 418.419C381.916 418.686 382.38 418.97 382.834 419.27C383.404 419.651 383.846 420.195 384.102 420.832C384.357 421.468 384.415 422.167 384.266 422.836C384.118 423.506 383.771 424.115 383.27 424.584C382.77 425.053 382.139 425.359 381.461 425.464L381.392 425.475C381.342 425.482 381.299 425.489 381.249 425.496C382.752 429.084 384.862 432.386 387.485 435.259C390.045 449.077 401.04 450.388 412.801 446.364H412.809C414.099 451.97 415.969 457.427 418.388 462.647H438.318C438.389 462.426 438.454 462.197 438.518 461.976C436.673 462.092 434.821 461.981 433.003 461.647C434.482 459.833 435.96 458.005 437.439 456.191C437.472 456.157 437.503 456.121 437.532 456.084C438.282 455.156 439.039 454.234 439.789 453.306L439.79 453.305C439.83 450.459 439.503 447.62 438.818 444.857L438.817 444.857Z" fill="#3F72AF" fill-opacity="0.4"/>
<path d="M405.608 267.674C410.89 248.5 420.743 232.17 436.651 219.607C437.281 218.635 438.27 217.952 439.403 217.708C440.535 217.464 441.718 217.68 442.692 218.307L479.002 241.745C479.974 242.375 480.657 243.364 480.901 244.496C481.145 245.628 480.93 246.811 480.302 247.784L449.259 295.852C448.63 296.824 447.64 297.507 446.508 297.75C445.376 297.994 444.193 297.779 443.219 297.152L406.909 273.713C405.936 273.084 405.253 272.094 405.01 270.962C404.766 269.83 404.981 268.648 405.608 267.674V267.674Z" fill="#3F72AF" fill-opacity="0.4"/>
<path d="M417.77 254.954C419.131 244.823 427.514 234.467 437.728 224.052C438.317 223.141 439.244 222.502 440.304 222.273C441.365 222.045 442.473 222.247 443.385 222.834L474.59 242.978C475.501 243.567 476.14 244.493 476.369 245.554C476.597 246.614 476.396 247.722 475.808 248.633L448.184 291.407C447.594 292.317 446.668 292.957 445.607 293.185C444.547 293.413 443.439 293.212 442.527 292.624L423.196 280.146C419.139 277.521 416.29 273.394 415.273 268.671C414.256 263.948 415.154 259.015 417.77 254.954V254.954Z" fill="#F9F7F7"/>
<path d="M420.555 296.26C415.947 276.913 416.716 257.857 424.605 239.187C424.689 238.032 425.227 236.957 426.102 236.199C426.977 235.44 428.117 235.059 429.273 235.14L472.385 238.198C473.541 238.281 474.616 238.819 475.375 239.694C476.134 240.569 476.515 241.709 476.434 242.864L472.384 299.937C472.3 301.092 471.762 302.167 470.887 302.925C470.012 303.684 468.872 304.065 467.716 303.985L424.604 300.926C423.448 300.843 422.373 300.305 421.614 299.43C420.855 298.555 420.474 297.415 420.555 296.26V296.26Z" fill="#3F72AF" fill-opacity="0.4"/>
<path d="M425.085 279.256C421.398 269.722 423.755 256.61 427.689 242.565C427.767 241.483 428.271 240.476 429.091 239.766C429.91 239.055 430.978 238.698 432.06 238.774L469.112 241.402C470.194 241.48 471.201 241.984 471.912 242.803C472.623 243.623 472.979 244.69 472.904 245.772L469.299 296.559C469.221 297.641 468.717 298.648 467.898 299.358C467.078 300.069 466.01 300.426 464.928 300.35L441.975 298.722C437.156 298.374 432.671 296.13 429.504 292.481C426.338 288.831 424.748 284.076 425.085 279.256Z" fill="#F9F7F7"/>
<path d="M424.272 176.824L405.802 108.478C405.011 105.585 403.114 103.118 400.52 101.611C397.926 100.104 394.843 99.677 391.937 100.422C390.434 100.808 389.025 101.495 387.796 102.443C386.567 103.39 385.544 104.578 384.789 105.934C384.034 107.29 383.564 108.785 383.406 110.329C383.248 111.873 383.406 113.432 383.871 114.913L405.234 185.32L416.411 228.649C414.783 229.891 413.577 231.605 412.957 233.556C412.337 235.508 412.334 237.603 412.946 239.557C413.559 241.511 414.758 243.229 416.382 244.478C418.005 245.726 419.973 246.445 422.019 246.536C424.065 246.628 426.09 246.087 427.818 244.988C429.546 243.889 430.894 242.284 431.678 240.393C432.462 238.501 432.645 236.414 432.202 234.415C431.758 232.416 430.71 230.602 429.199 229.219L424.272 176.824Z" fill="#FFB6B6"/>
<path d="M291.069 188.648L310.011 120.431C310.804 117.538 310.429 114.45 308.965 111.831C307.501 109.213 305.067 107.275 302.186 106.436C300.696 106.002 299.133 105.876 297.593 106.065C296.053 106.254 294.567 106.755 293.226 107.537C291.886 108.32 290.719 109.367 289.796 110.614C288.874 111.862 288.215 113.285 287.86 114.795L270.358 186.259L257.892 229.235C255.858 229.475 253.947 230.335 252.419 231.699C250.891 233.063 249.82 234.863 249.352 236.857C248.883 238.85 249.039 240.939 249.8 242.84C250.56 244.742 251.887 246.363 253.601 247.484C255.315 248.605 257.333 249.171 259.38 249.105C261.427 249.04 263.404 248.346 265.043 247.118C266.682 245.89 267.903 244.187 268.541 242.241C269.178 240.295 269.2 238.2 268.605 236.241L291.069 188.648Z" fill="#FFB6B6"/>
<path d="M399.46 450.69L387.39 450.689L381.649 404.146L399.462 404.147L399.46 450.69Z" fill="#FFB6B6"/>
<path d="M399.885 463.278L362.77 463.276V462.807C362.77 458.977 364.292 455.303 367.001 452.595C369.71 449.886 373.385 448.364 377.216 448.364H377.217L383.996 443.222L396.646 448.365L399.886 448.365L399.885 463.278Z" fill="#112D4E"/>
<path d="M314.524 450.811L302.642 448.692L305.161 401.863L322.698 404.99L314.524 450.811Z" fill="#FFB6B6"/>
<path d="M312.732 463.278L276.193 456.763L276.275 456.301C276.948 452.53 279.091 449.181 282.234 446.99C285.377 444.799 289.261 443.946 293.033 444.618L293.034 444.618L300.611 440.745L312.161 448.028L315.351 448.597L312.732 463.278Z" fill="#112D4E"/>
<path d="M315.7 236.691C315.7 236.691 304.452 252.619 304.91 257.965C305.369 263.31 309.341 259.046 305.369 263.31C301.396 267.574 299.082 264.714 301.033 269.982C302.985 275.25 303.78 271.839 302.985 275.25C302.191 278.661 303.78 409.146 303.78 409.146H324.464C324.464 409.146 336.129 333.485 334.653 329.953C333.176 326.42 333.21 327.958 334.782 324.204C336.354 320.451 337.833 315.985 337.833 315.985L354.183 269.982L366.795 334.753L381.641 411.721H401.463C401.463 411.721 404.857 298.539 406.358 297.128C407.859 295.718 406.063 292.549 404.18 290.722C402.297 288.895 402.673 287.041 403.279 283.278C403.886 279.514 406.446 277.415 406.358 275.053C406.27 272.692 411.831 235.167 403.092 229.197C394.352 223.227 315.7 236.691 315.7 236.691Z" fill="#112D4E"/>
<path d="M384.862 78.0283L361.725 72.0341L350.924 57.1413L325.274 60.2937L319.814 80.6077L301.554 91.2047C334.287 91.4003 316.66 186.21 321.471 192.327C325.386 197.305 301.929 209.147 309.28 216.701C316.632 224.256 313.914 221.233 312.208 229.457C310.502 237.682 298.067 246.385 312.208 246.299C326.349 246.213 411.681 244.994 409.243 235.244C406.805 225.494 406.843 227.97 403.167 221.857C399.491 215.745 397.016 219.16 398.253 210.14C399.491 201.12 395.473 194.143 398.272 190.151C402.568 184.024 398.238 139.797 394.187 140.977L384.862 78.0283Z" fill="#5271FF"/>
<path d="M378.256 78.3445C378.256 78.3445 395.181 71.1559 401.276 84.5619C403.223 88.8437 404.862 99.5986 406.442 97.2136C408.021 94.8287 406.497 100.057 407.475 100.064C408.348 100.069 409.689 98.6582 408.675 103.52C408.358 105.115 408.449 106.764 408.941 108.314C409.433 109.864 410.31 111.264 411.489 112.383L382.073 129.997L378.256 78.3445Z" fill="#5271FF"/>
<path d="M314.665 90.5318C314.665 90.5318 297.74 83.3432 291.645 96.7492C289.931 100.519 290.357 108.897 287.019 107.956C283.681 107.016 286.051 110.56 285.61 111.791C285.12 113.163 287.263 117.046 284.253 115.687C281.243 114.328 281.432 124.571 281.432 124.571L310.849 142.184L314.665 90.5318Z" fill="#5271FF"/>
<path d="M322.69 70.4541L317.814 78.9852C317.814 78.9852 304.405 86.2976 304.405 87.5163C304.405 88.735 306.843 98.6864 304.405 106.507C301.966 114.328 309.058 129.037 310.5 141.14C316.595 192.327 298.469 210.925 294.652 243.513L333.335 254.808C333.335 254.808 339.756 169.171 339.756 149.671C339.756 130.172 322.69 70.4541 322.69 70.4541Z" fill="#112D4E"/>
<path d="M358.041 66.7979L368.006 72.4644C368.006 72.4644 381.047 75.339 381.203 76.5477C381.359 77.7565 381.405 90.6032 384.822 98.0487C388.24 105.494 387.298 109.453 396.501 131.464C401.204 142.71 411.999 232.687 411.999 232.687L375.077 248.829C375.077 248.829 357.766 164.714 355.275 145.374C352.784 126.034 358.041 66.7979 358.041 66.7979Z" fill="#112D4E"/>
<path d="M333.125 55.1784C347.045 55.1784 358.33 43.8961 358.33 29.9787C358.33 16.0613 347.045 4.77899 333.125 4.77899C319.204 4.77899 307.919 16.0613 307.919 29.9787C307.919 43.8961 319.204 55.1784 333.125 55.1784Z" fill="#FFB6B6"/>
<path d="M349.713 49.5579C343.755 44.9018 351.899 24.4191 342.06 28.7911C342.06 28.7911 330.034 21.1401 327.618 26.1678C324.82 31.9895 314.871 29.3485 308.759 27.2937C309.24 26.1774 309.581 25.0065 309.776 23.807C308.648 24.6956 307.453 25.4959 306.201 26.2007C305.362 25.7523 304.619 25.1432 304.015 24.4081C303.419 23.7255 303.046 22.8769 302.946 21.9762C302.846 21.0755 303.025 20.1658 303.457 19.3695C304.474 17.8065 306.573 17.3256 307.808 15.9374C307.951 15.7422 308.044 15.5153 308.08 15.2762C308.116 15.037 308.093 14.7928 308.013 14.5644C307.866 14.0059 307.844 13.4218 307.948 12.8538C308.053 12.2857 308.281 11.7476 308.617 11.2779C308.953 10.8082 309.389 10.4184 309.893 10.1362C310.397 9.85405 310.957 9.6865 311.534 9.6455C311.765 9.65259 311.995 9.60251 312.203 9.4997C313.24 8.86507 314.198 8.10923 315.057 7.24813C313.624 7.31371 315.376 -1.45079 329.575 0.209243C333.15 0.0780955 335.017 4.01984 338.537 4.64286C347.07 -0.232051 354.687 6.80003 358.393 13.5219C362.099 20.2438 366.112 41.907 349.713 49.5579Z" fill="#112D4E"/>
<path d="M242.162 13.407H16.2174C11.9189 13.4106 7.7974 15.1187 4.75707 18.1567C1.71674 21.1946 0.0059484 25.3142 0 29.6116V233.157C0.00558971 237.455 1.71599 241.576 4.75614 244.616C7.79629 247.655 11.918 249.365 16.2174 249.371H242.162C246.461 249.365 250.581 247.654 253.62 244.615C256.658 241.575 258.367 237.455 258.371 233.157V29.6116C258.367 25.3151 256.658 21.1957 253.619 18.1576C250.58 15.1195 246.46 13.4109 242.162 13.407V13.407Z" fill="#F9F7F7"/>
<path d="M138.925 60.124H114.786C113.601 60.124 112.464 59.6531 111.626 58.815C110.787 57.9769 110.316 56.8402 110.316 55.655C110.316 54.4697 110.787 53.333 111.626 52.4949C112.464 51.6568 113.601 51.186 114.786 51.186H138.925C140.11 51.186 141.247 51.6568 142.086 52.4949C142.924 53.333 143.395 54.4697 143.395 55.655C143.395 56.8402 142.924 57.9769 142.086 58.815C141.247 59.6531 140.11 60.124 138.925 60.124Z" fill="#5271FF"/>
<path d="M458.983 265.459H434.844C433.659 265.459 432.522 264.988 431.683 264.15C430.845 263.312 430.374 262.175 430.374 260.99C430.374 259.805 430.845 258.668 431.683 257.83C432.522 256.992 433.659 256.521 434.844 256.521H458.983C460.168 256.521 461.305 256.992 462.143 257.83C462.982 258.668 463.453 259.805 463.453 260.99C463.453 262.175 462.982 263.312 462.143 264.15C461.305 264.988 460.168 265.459 458.983 265.459V265.459Z" fill="#6C63FF"/>
<path d="M201.506 153.734H52.2054C51.0199 153.734 49.8829 153.263 49.0446 152.425C48.2063 151.587 47.7354 150.45 47.7354 149.265C47.7354 148.08 48.2063 146.943 49.0446 146.105C49.8829 145.267 51.0199 144.796 52.2054 144.796H201.506C202.692 144.796 203.829 145.267 204.667 146.105C205.505 146.943 205.976 148.08 205.976 149.265C205.976 150.45 205.505 151.587 204.667 152.425C203.829 153.263 202.692 153.734 201.506 153.734Z" fill="#3F72AF" fill-opacity="0.4"/>
<path d="M201.506 183.229H52.2054C51.0199 183.229 49.8829 182.758 49.0446 181.92C48.2063 181.082 47.7354 179.946 47.7354 178.76C47.7354 177.575 48.2063 176.438 49.0446 175.6C49.8829 174.762 51.0199 174.291 52.2054 174.291H201.506C202.692 174.291 203.829 174.762 204.667 175.6C205.505 176.438 205.976 177.575 205.976 178.76C205.976 179.946 205.505 181.082 204.667 181.92C203.829 182.758 202.692 183.229 201.506 183.229Z" fill="#3F72AF" fill-opacity="0.4"/>
<path d="M201.506 212.725H52.2054C51.0199 212.725 49.8829 212.254 49.0446 211.416C48.2063 210.578 47.7354 209.441 47.7354 208.256C47.7354 207.07 48.2063 205.934 49.0446 205.096C49.8829 204.258 51.0199 203.787 52.2054 203.787H201.506C202.692 203.787 203.829 204.258 204.667 205.096C205.505 205.934 205.976 207.07 205.976 208.256C205.976 209.441 205.505 210.578 204.667 211.416C203.829 212.254 202.692 212.725 201.506 212.725Z" fill="#3F72AF" fill-opacity="0.4"/>
<path d="M170.989 73.533H82.7233C78.4248 73.5365 74.3033 75.2447 71.263 78.2826C68.2226 81.3205 66.5118 85.4401 66.5059 89.7376V116.31C66.5115 120.609 68.2219 124.729 71.262 127.769C74.3022 130.808 78.4239 132.518 82.7233 132.524H170.989C175.288 132.518 179.409 130.808 182.447 127.768C185.486 124.728 187.194 120.608 187.198 116.31V89.7376C187.194 85.4411 185.485 81.3216 182.446 78.2835C179.407 75.2454 175.287 73.5369 170.989 73.533ZM185.41 116.31C185.41 120.136 183.89 123.806 181.184 126.511C178.478 129.216 174.807 130.736 170.981 130.736H107.619C97.1894 130.736 87.1869 126.594 79.812 119.221C72.4371 111.848 68.2939 101.848 68.2939 91.4204V89.7376C68.3 85.9143 69.8224 82.2494 72.5274 79.5468C75.2324 76.8441 78.8991 75.3243 82.7233 75.3206H170.989C174.813 75.3246 178.478 76.8449 181.182 79.5477C183.885 82.2505 185.406 85.9152 185.41 89.7376V116.31Z" fill="#3F72AF" fill-opacity="0.4"/>
<path d="M127.844 112.619C136.238 112.619 143.043 105.816 143.043 97.4244C143.043 89.0326 136.238 82.2297 127.844 82.2297C119.45 82.2297 112.646 89.0326 112.646 97.4244C112.646 105.816 119.45 112.619 127.844 112.619Z" fill="#FFB6B6"/>
<path d="M162.809 132.524L94.7656 132.283L116.222 126.92L118.895 118.098L139.466 117.982L145.626 126.705L161.182 130.736L162.595 131.103L162.809 132.524Z" fill="#5271FF"/>
<path d="M119.207 107.126C122.468 104.577 118.01 93.3654 123.396 95.7585C123.396 95.7585 129.978 91.5705 131.301 94.3226C132.832 97.5093 138.278 96.0636 141.624 94.9389C141.361 94.3279 141.174 93.6869 141.067 93.0303C141.685 93.5167 142.339 93.9548 143.024 94.3406C143.483 94.0951 143.89 93.7617 144.221 93.3594C144.547 92.9857 144.751 92.5212 144.806 92.0282C144.86 91.5352 144.763 91.0372 144.526 90.6013C143.969 89.7458 142.82 89.4825 142.144 88.7227C142.066 88.6159 142.015 88.4917 141.995 88.3608C141.976 88.2299 141.988 88.0962 142.032 87.9711C142.112 87.6654 142.125 87.3457 142.067 87.0348C142.01 86.7238 141.885 86.4293 141.701 86.1722C141.517 85.9151 141.279 85.7017 141.003 85.5473C140.727 85.3928 140.42 85.3011 140.105 85.2787C139.978 85.2825 139.852 85.2551 139.739 85.1988C139.171 84.8515 138.647 84.4378 138.177 83.9664C138.961 84.0023 138.002 79.2048 130.23 80.1135C128.273 80.0417 127.251 82.1993 125.324 82.5403C120.653 79.8719 116.484 83.7211 114.455 87.4005C112.427 91.0799 110.23 102.938 119.207 107.126Z" fill="#112D4E"/>
<path d="M242.162 13.407H16.2174C11.9189 13.4106 7.7974 15.1187 4.75707 18.1567C1.71674 21.1946 0.0059484 25.3142 0 29.6116V233.157C0.00558971 237.455 1.71599 241.576 4.75614 244.616C7.79629 247.655 11.918 249.365 16.2174 249.371H242.162C246.461 249.365 250.581 247.654 253.62 244.615C256.658 241.575 258.367 237.455 258.371 233.157V29.6116C258.367 25.3151 256.658 21.1957 253.619 18.1576C250.58 15.1195 246.46 13.4109 242.162 13.407V13.407ZM256.583 233.157C256.583 236.983 255.062 240.652 252.356 243.358C249.65 246.063 245.98 247.583 242.153 247.583H118.19C102.904 247.583 87.7671 244.573 73.6446 238.725C59.5221 232.876 46.6901 224.304 35.8813 213.498C25.0724 202.692 16.4983 189.863 10.6486 175.744C4.79883 161.625 1.78803 146.492 1.78803 131.209V29.6116C1.79412 25.7883 3.31659 22.1235 6.02157 19.4208C8.72654 16.7182 12.3932 15.1983 16.2174 15.1946H242.162C245.985 15.1987 249.651 16.7189 252.354 19.4218C255.058 22.1246 256.578 25.7893 256.583 29.6116V233.157Z" fill="#3F72AF" fill-opacity="0.4"/>
<path d="M478.215 464.725L196.281 465C195.999 464.999 195.73 464.886 195.532 464.686C195.333 464.487 195.222 464.217 195.222 463.936C195.222 463.654 195.333 463.385 195.532 463.185C195.73 462.986 195.999 462.873 196.281 462.872L478.215 462.597C478.497 462.598 478.766 462.711 478.965 462.91C479.163 463.11 479.275 463.38 479.275 463.661C479.275 463.942 479.163 464.212 478.965 464.412C478.766 464.611 478.497 464.724 478.215 464.725V464.725Z" fill="#112D4E"/>
</g>
<defs>
<clipPath id="clip0_424_55">
<rect width="481" height="465" fill="white"/>
</clipPath>
</defs>
</svg>
